<svg xmlns="http://www.w3.org/2000/svg" width="760" height="360" viewBox="0 0 760 360" font-family="-apple-system, Segoe UI, Helvetica, Arial, sans-serif" role="img" aria-label="log2 output step by input exponent">
<rect width="100%" height="100%" fill="#fcfcfb"/>
<text x="20.0" y="28.0" font-size="15" fill="#0b0b0b" text-anchor="start" font-weight="600">log2: the output step depends on the input's exponent</text>
<text x="20.0" y="48.0" font-size="12" fill="#52514e" text-anchor="start" font-weight="normal">log2 of the step size. Coefficients lose low bits to match the step; negative exponents use one fixed step</text>
<line x1="70.0" x2="690.0" y1="265.6" y2="265.6" stroke="#e6e5e0" stroke-width="1"/>
<text x="64.0" y="269.6" font-size="11" fill="#8a8984" text-anchor="end" font-weight="normal">-22</text>
<line x1="70.0" x2="690.0" y1="216.7" y2="216.7" stroke="#e6e5e0" stroke-width="1"/>
<text x="64.0" y="220.7" font-size="11" fill="#8a8984" text-anchor="end" font-weight="normal">-20</text>
<line x1="70.0" x2="690.0" y1="167.8" y2="167.8" stroke="#e6e5e0" stroke-width="1"/>
<text x="64.0" y="171.8" font-size="11" fill="#8a8984" text-anchor="end" font-weight="normal">-18</text>
<line x1="70.0" x2="690.0" y1="118.9" y2="118.9" stroke="#e6e5e0" stroke-width="1"/>
<text x="64.0" y="122.9" font-size="11" fill="#8a8984" text-anchor="end" font-weight="normal">-16</text>
<line x1="70.0" x2="690.0" y1="70.0" y2="70.0" stroke="#e6e5e0" stroke-width="1"/>
<text x="64.0" y="74.0" font-size="11" fill="#8a8984" text-anchor="end" font-weight="normal">-14</text>
<text x="70.0" y="306.0" font-size="11" fill="#8a8984" text-anchor="middle" font-weight="normal">-16</text>
<text x="138.9" y="306.0" font-size="11" fill="#8a8984" text-anchor="middle" font-weight="normal">0</text>
<text x="276.7" y="306.0" font-size="11" fill="#8a8984" text-anchor="middle" font-weight="normal">32</text>
<text x="414.4" y="306.0" font-size="11" fill="#8a8984" text-anchor="middle" font-weight="normal">64</text>
<text x="552.2" y="306.0" font-size="11" fill="#8a8984" text-anchor="middle" font-weight="normal">96</text>
<text x="690.0" y="306.0" font-size="11" fill="#8a8984" text-anchor="middle" font-weight="normal">128</text>
<polyline fill="none" stroke="#2a78d6" stroke-width="2" stroke-linejoin="round" stroke-linecap="round" points="70.0,94.4 74.3,94.4 74.3,94.4 78.6,94.4 78.6,94.4 82.9,94.4 82.9,94.4 87.2,94.4 87.2,94.4 91.5,94.4 91.5,94.4 95.8,94.4 95.8,94.4 100.1,94.4 100.1,94.4 104.4,94.4 104.4,94.4 108.8,94.4 108.8,94.4 113.1,94.4 113.1,94.4 117.4,94.4 117.4,94.4 121.7,94.4 121.7,94.4 126.0,94.4 126.0,94.4 130.3,94.4 130.3,94.4 134.6,94.4 134.6,94.4 138.9,94.4 138.9,265.6 143.2,265.6 143.2,265.6 147.5,265.6 147.5,241.1 151.8,241.1 151.8,241.1 156.1,241.1 156.1,216.7 160.4,216.7 160.4,216.7 164.7,216.7 164.7,216.7 169.0,216.7 169.0,216.7 173.3,216.7 173.3,192.2 177.6,192.2 177.6,192.2 181.9,192.2 181.9,192.2 186.2,192.2 186.2,192.2 190.6,192.2 190.6,192.2 194.9,192.2 194.9,192.2 199.2,192.2 199.2,192.2 203.5,192.2 203.5,192.2 207.8,192.2 207.8,167.8 212.1,167.8 212.1,167.8 216.4,167.8 216.4,167.8 220.7,167.8 220.7,167.8 225.0,167.8 225.0,167.8 229.3,167.8 229.3,167.8 233.6,167.8 233.6,167.8 237.9,167.8 237.9,167.8 242.2,167.8 242.2,167.8 246.5,167.8 246.5,167.8 250.8,167.8 250.8,167.8 255.1,167.8 255.1,167.8 259.4,167.8 259.4,167.8 263.8,167.8 263.8,167.8 268.1,167.8 268.1,167.8 272.4,167.8 272.4,167.8 276.7,167.8 276.7,143.3 281.0,143.3 281.0,143.3 285.3,143.3 285.3,143.3 289.6,143.3 289.6,143.3 293.9,143.3 293.9,143.3 298.2,143.3 298.2,143.3 302.5,143.3 302.5,143.3 306.8,143.3 306.8,143.3 311.1,143.3 311.1,143.3 315.4,143.3 315.4,143.3 319.7,143.3 319.7,143.3 324.0,143.3 324.0,143.3 328.3,143.3 328.3,143.3 332.6,143.3 332.6,143.3 336.9,143.3 336.9,143.3 341.2,143.3 341.2,143.3 345.6,143.3 345.6,143.3 349.9,143.3 349.9,143.3 354.2,143.3 354.2,143.3 358.5,143.3 358.5,143.3 362.8,143.3 362.8,143.3 367.1,143.3 367.1,143.3 371.4,143.3 371.4,143.3 375.7,143.3 375.7,143.3 380.0,143.3 380.0,143.3 384.3,143.3 384.3,143.3 388.6,143.3 388.6,143.3 392.9,143.3 392.9,143.3 397.2,143.3 397.2,143.3 401.5,143.3 401.5,143.3 405.8,143.3 405.8,143.3 410.1,143.3 410.1,143.3 414.4,143.3 414.4,118.9 418.8,118.9 418.8,118.9 423.1,118.9 423.1,118.9 427.4,118.9 427.4,118.9 431.7,118.9 431.7,118.9 436.0,118.9 436.0,118.9 440.3,118.9 440.3,118.9 444.6,118.9 444.6,118.9 448.9,118.9 448.9,118.9 453.2,118.9 453.2,118.9 457.5,118.9 457.5,118.9 461.8,118.9 461.8,118.9 466.1,118.9 466.1,118.9 470.4,118.9 470.4,118.9 474.7,118.9 474.7,118.9 479.0,118.9 479.0,118.9 483.3,118.9 483.3,118.9 487.6,118.9 487.6,118.9 491.9,118.9 491.9,118.9 496.2,118.9 496.2,118.9 500.6,118.9 500.6,118.9 504.9,118.9 504.9,118.9 509.2,118.9 509.2,118.9 513.5,118.9 513.5,118.9 517.8,118.9 517.8,118.9 522.1,118.9 522.1,118.9 526.4,118.9 526.4,118.9 530.7,118.9 530.7,118.9 535.0,118.9 535.0,118.9 539.3,118.9 539.3,118.9 543.6,118.9 543.6,118.9 547.9,118.9 547.9,118.9 552.2,118.9 552.2,118.9 556.5,118.9 556.5,118.9 560.8,118.9 560.8,118.9 565.1,118.9 565.1,118.9 569.4,118.9 569.4,118.9 573.8,118.9 573.8,118.9 578.1,118.9 578.1,118.9 582.4,118.9 582.4,118.9 586.7,118.9 586.7,118.9 591.0,118.9 591.0,118.9 595.3,118.9 595.3,118.9 599.6,118.9 599.6,118.9 603.9,118.9 603.9,118.9 608.2,118.9 608.2,118.9 612.5,118.9 612.5,118.9 616.8,118.9 616.8,118.9 621.1,118.9 621.1,118.9 625.4,118.9 625.4,118.9 629.7,118.9 629.7,118.9 634.0,118.9 634.0,118.9 638.3,118.9 638.3,118.9 642.6,118.9 642.6,118.9 646.9,118.9 646.9,118.9 651.2,118.9 651.2,118.9 655.6,118.9 655.6,118.9 659.9,118.9 659.9,118.9 664.2,118.9 664.2,118.9 668.5,118.9 668.5,118.9 672.8,118.9 672.8,118.9 677.1,118.9 677.1,118.9 681.4,118.9 681.4,118.9 685.7,118.9 685.7,118.9 690.0,118.9"/>
<text x="104.4" y="86.4" font-size="11" fill="#52514e" text-anchor="middle" font-weight="normal">negative exponents: 2^-15</text>
<text x="143.2" y="281.6" font-size="11" fill="#52514e" text-anchor="start" font-weight="normal">0 and 1: 2^-22</text>
<text x="380.0" y="324.0" font-size="11" fill="#8a8984" text-anchor="middle" font-weight="normal">input exponent</text>
</svg>
