<?xml version="1.0" encoding="UTF-8"?>
<svg version="1.1" viewBox="0 0 330.20001 192.5" xmlns="http://www.w3.org/2000/svg" xmlns:xlink="http://www.w3.org/1999/xlink"><style type="text/css">.st0{fill:#202124;}
	.st1{clip-path:url(#SVGID_00000034055883123690639930000008886705830115718281_);}
	.st2{fill:#34A853;}</style><g transform="translate(-275.29999,-379.60001)"><defs><rect id="SVGID_1_" x="275.29999" y="379.60001" width="330.5" height="192.5"/></defs><clipPath id="SVGID_00000099632906935527403410000002792636259776861355_"><use xlink:href="#SVGID_1_"/></clipPath><g clip-path="url(#SVGID_00000099632906935527403410000002792636259776861355_)"><path class="st2" d="m604.9 564.8c-0.1-0.7-0.2-1.3-0.3-2-0.7-4.1-1.5-8.2-2.5-12.3-1.7-7.1-3.9-14-6.5-20.6-2.2-5.7-4.7-11.2-7.5-16.5-3.6-6.8-7.6-13.4-12.1-19.7-5.5-7.7-11.6-14.8-18.2-21.5-2.8-2.8-5.7-5.5-8.7-8-6.5-5.6-13.4-10.7-20.7-15.2 0.1-0.1 0.1-0.2 0.2-0.3 3.3-5.8 6.7-11.5 10-17.3 3.3-5.6 6.5-11.2 9.8-16.9 2.3-4 4.7-8.1 7-12.1 0.6-1 1-1.9 1.3-3 0.9-2.8 1-5.8 0.2-8.6-0.2-0.7-0.4-1.4-0.7-2-0.3-0.7-0.6-1.3-1-1.9-1.2-2.1-3-3.9-5.3-5.2-2-1.2-4.2-1.9-6.5-2.1-1-0.1-1.9-0.1-2.9 0-0.8 0.1-1.6 0.2-2.3 0.4-2.8 0.7-5.3 2.2-7.3 4.4-0.7 0.8-1.4 1.7-1.9 2.6-2.3 4-4.7 8.1-7 12.1l-9.8 16.9c-3.3 5.8-6.7 11.5-10 17.3-0.4 0.6-0.7 1.3-1.1 1.9l-1.5-0.6c-18.4-7-38.3-10.8-59.2-10.8h-1.7c-18.5 0.2-36.3 3.4-53 9.2-1.9 0.7-3.8 1.4-5.7 2.1-0.3-0.6-0.7-1.2-1-1.8-3.3-5.8-6.7-11.5-10-17.3-3.3-5.6-6.5-11.2-9.8-16.9-2.3-4-4.7-8.1-7-12.1-0.6-1-1.2-1.8-1.9-2.6-2-2.2-4.6-3.7-7.3-4.4-0.8-0.2-1.6-0.3-2.3-0.4-1-0.1-1.9-0.1-2.9 0-2.3 0.2-4.5 0.9-6.5 2.1-2.2 1.3-4 3.1-5.3 5.2-0.4 0.6-0.7 1.2-1 1.9s-0.5 1.3-0.7 2c-0.7 2.8-0.7 5.7 0.2 8.6 0.3 1 0.8 2 1.3 3 2.3 4 4.7 8.1 7 12.1 3.3 5.6 6.5 11.2 9.8 16.9 3.3 5.8 6.7 11.5 10 17.3l0.1 0.1c-6.7 4.2-13.1 8.8-19.2 13.9-3.6 3-7.1 6.2-10.4 9.5-6.7 6.6-12.7 13.8-18.2 21.5-4.5 6.3-8.5 12.8-12.1 19.7-2.8 5.3-5.3 10.8-7.5 16.5-2.6 6.7-4.8 13.6-6.5 20.6-1 4-1.8 8.1-2.5 12.3-0.1 0.7-0.2 1.3-0.3 2-0.4 2.4-0.7 4.8-1 7.3h330.5c0-2.5-0.3-4.9-0.6-7.3z"/><path class="st0" d="m526.5 526.3c6.6-4.4 7.6-14.6 2.1-22.7-5.4-8.2-15.2-11.2-21.8-6.8s-7.6 14.6-2.1 22.7c5.4 8.2 15.2 11.2 21.8 6.8z"/><path class="st0" d="m376.7 519.6c5.4-8.2 4.5-18.3-2.1-22.7s-16.4-1.4-21.8 6.8-4.5 18.3 2.1 22.7 16.3 1.3 21.8-6.8z"/></g></g></svg>
