<?xml version="1.0" encoding="UTF-8"?>
<svg version="1.1" viewBox="0 0 58.986 58.986" xmlns="http://www.w3.org/2000/svg"><rect width="58.986" height="58.986" rx="13.68232" stroke-width=".304052"/><g transform="translate(6.274,7.0504998)" fill="#fff"><path d="m16.451 11.896c0-1.264-0.774-2.864-4.027-2.864h-5.009l-1.424 6.588h5.222c4.077 0 5.238-1.93 5.238-3.724z"/><path d="m29.944 11.896c0-1.264-0.772-2.864-4.024-2.864h-5.01l-1.423 6.587h5.219c4.079 1e-3 5.238-1.929 5.238-3.723z"/><path d="m14.644 21.811c0-1.264-0.774-2.868-4.027-2.868h-5.009l-1.424 6.592h5.22c4.078 0 5.24-1.935 5.24-3.724z"/><path d="m28.137 21.811c0-1.264-0.775-2.868-4.025-2.868h-5.009l-1.426 6.592h5.222c4.079 0 5.238-1.935 5.238-3.724z"/><path d="m42.254 17.79c0-1.265-0.775-2.868-4.025-2.868h-5.009l-1.426 6.591h5.22c4.079 0 5.24-1.93 5.24-3.723z"/><path d="m40.308 28.113c0-1.265-0.773-2.864-4.025-2.864h-5.009l-1.424 6.588h5.22c4.078 0 5.238-1.935 5.238-3.724z"/><path d="m26.198 32.135c0-1.27-0.772-2.873-4.022-2.873h-5.012l-1.424 6.591h5.22c4.079 1e-3 5.238-1.929 5.238-3.718z"/></g></svg>
