<?xml version="1.0" encoding="UTF-8"?>
<svg version="1.1" viewBox="0 0 131.12 131.11999" xmlns="http://www.w3.org/2000/svg"><g fill="#fff" stroke="#fff" stroke-width="6"><rect x="42.360004" y="3" width="46.400002" height="125.12"/><rect x="3" y="42.360001" width="125.12" height="46.400002"/></g><path d="m42.359991 88.75999h-39.3600005v-46.4h39.3600005v-39.3599991h46.40008v39.3600001h39.360009v46.399999h-39.360009v39.36001h-46.40008zm36.63432 12.48001h-26.86857l13.43429 13.44zm-9.75428-22.467699c11.95868-3.517178 13.46785-19.933464 2.33818-25.434043-8.30739-4.105735-18.14456 0.988095-19.59613 10.147164-1.53957 9.71432 7.86896 18.048283 17.25795 15.286879zm-39.36-26.492311-13.44007 13.274352 13.44007 13.28565zm84.800069 13.274352-13.52006-13.27435v26.56l13.52042-13.28565zm-49.120069-49.114351-13.43429 13.44h26.86857z" fill="#231f20"/></svg>
