<?xml version="1.0" encoding="UTF-8"?>
<svg version="1.1" viewBox="0 0 358.34961 342.00031" xmlns="http://www.w3.org/2000/svg"><path d="m174.30273 3.1100275e-4c-5.51-0.009999993-11.26 0.2192188072-17.25 0.6992188072-151.4399953 12.19000019-111.269525 172.1917202-113.519525 225.7617202-2.77 39.18-10.71016 70.05937-37.6601603 108.35937-1.87301 2.2275-3.91701 4.79337-5.873040012 7.17969h358.3495953c-0.3538-0.41986-0.76435-0.96625-1.11523-1.38086-28.53-35.99-56.43186-70.14937-55.88086-120.60937 0.849-77.01 8.46922-219.819769-127.05078-220.009769z"/><path d="m233.72312 231.69031c-2.63-5.15-8-10.05-17.14-13.8l-0.02-0.01-0.03-0.01c-19.01-8.14-27.26-8.72-37.87-15.62-17.27-11.1-31.54-14.99-43.4-14.94-6.21 0.02-11.76 1.12-16.73 2.84-14.45 4.97-24.039995 15.34-30.049995 21.03l-0.01 0.01c0 0.01-0.01 0.01-0.01 0.02-1.18 1.12-2.7 2.14-6.38 4.84-3.71 2.71-9.27 6.79-17.27 12.79-7.11 5.33-9.42 12.27-6.96 20.4 2.45 8.13 10.29 17.51 24.63 25.62l0.02 0.02 0.03 0.01c8.9 5.23 14.98 12.28 21.959995 17.89 3.49 2.8 7.16 5.3 11.58 7.19s9.58 3.17 16.04 3.55c15.16 0.88 26.32-3.67 36.17-9.31 9.87-5.63 18.229-12.52 27.82-15.63l0.02-0.01 0.021-0.01c19.659-6.14 33.68-18.51 38.069-30.26 2.2-5.88 2.13-11.46-0.49-16.61z" fill="#f8bf11"/><path d="m183.84312 260.71031c-15.64075 8.1527-33.91 18.04-53.35 18.04-19.43 0-34.779995-8.98-45.819995-17.73-5.52-4.37-10-8.72-13.38-11.88-5.86434-4.62903-5.16188-11.12168-2.75246-10.93 4.03863 0.50418 4.64927 5.82168 7.19246 8.2 3.44 3.22 7.75 7.39 12.97 11.53 10.44 8.27 24.359995 16.32 41.789995 16.32 17.4 0 37.71174-10.21517 50.11-17.17 7.02421-3.94024 15.96224-11.0031 23.25658-16.35742 5.58072-4.09647 5.37722-9.02921 9.98509-8.49216 4.60786 0.53705 1.19917 5.45984-5.25377 11.09153-6.45295 5.63169-16.54818 13.10397-24.7479 17.37805z"/><path d="m145.03973 203.89c0.64684 2.07624 3.99301 1.73211 5.92629 2.72792 1.69642 0.87378 3.06086 2.78891 4.96829 2.84398 1.82043 0.0526 4.65359-0.63043 4.89041-2.43615 0.31286-2.38563-3.17083-3.90165-5.41255-4.77563-2.88469-1.12471-6.58056-1.69534-9.28659-0.19073-0.6201 0.34477-1.29689 1.15328-1.08585 1.83064z"/><path d="m125.27538 203.89c-0.64684 2.07624-3.99301 1.73211-5.92629 2.72792-1.69642 0.87378-3.06086 2.78891-4.96829 2.84398-1.82043 0.0526-4.65359-0.63043-4.89041-2.43615-0.31286-2.38563 3.17083-3.90165 5.41255-4.77563 2.88469-1.12471 6.58056-1.69534 9.28659-0.19073 0.6201 0.34477 1.29689 1.15328 1.08585 1.83064z"/><g fill="#fff"><path d="m235.46289 259.6214c-7.519 10.72-20.72938 19.91914-37.35938 25.11914-0.01 0-0.0193 2e-3 -0.0293 0.0117-7.871 2.56-16.16954 9.13813-26.56054 15.07813-9.56 5.47-21.03977 10.27148-35.75977 10.27148-1.31 0-2.65148-0.0411-4.02148-0.12109-14.28-0.83-23.72883-6.08016-31.29883-12.16016-7.549995-6.07-13.380625-12.74836-21.140625-17.31836-0.01 0-0.01-2e-3 -0.0195-0.0117-2.65-1.51-8.59984-5.52906-10.33984-6.78906-1.1426 21.55291-6.84278 44.97028-14.59375 68.29883h208.550745c-11.02689-28.2342-21.21821-57.90609-27.42773-82.37891z"/><path d="m235.46312 173.03031c0.08 10.09-1.66 18.68-5.49 27.45-2.18 5-4.689 9.2-7.699 12.84-1.021-0.49-2.08-0.96-3.181-1.41-3.81-1.63-7.18-2.97-10.199-4.11-3.021-1.14-5.37791-1.91895-7.80891-2.75895 1.761-2.13 5.23-4.64 6.521-7.79 1.96-4.75 2.92-9.39 3.1-14.92 0-0.22 0.07-0.41 0.07-0.67 0.11-5.3-0.59-9.83-2.14-14.47-1.62-4.87-3.681-8.37-6.66-11.28-2.99-2.91-5.97-4.23-9.55-4.35-0.17-0.01-0.33-0.01-0.5-0.01-3.36 0.01-6.28 1.17-9.301 3.69-3.17 2.65-5.52 6.04-7.479 10.76-1.95 4.72-2.91 9.4-3.101 14.96-0.029 0.22-0.029 0.41-0.029 0.63-0.07 3.06 0.13 5.86 0.6 8.58-6.88-3.43-15.68209-5.93105-21.76209-7.38105-0.35-2.63-0.55-5.34-0.61-8.18v-0.77c-0.11-10.06 1.54-18.69 5.41-27.45 3.87-8.77 8.66-15.07 15.399-20.2 6.75-5.12 13.381-7.47 21.23-7.55h0.37c7.68 0 14.25 2.26 21 7.15 6.85 4.98 11.79 11.2 15.77 19.9 3.9 8.48 5.78 16.77 5.971 26.6-1e-3 0.26-1e-3 0.48 0.069 0.74z"/><path d="m119.38312 183.08031c-1.01 0.29-1.99 0.6-2.96 0.93-5.5 1.9-9.86686 3.99686-14.08686 6.78686 0.41-2.92 0.47-5.88 0.15-9.19-0.03-0.18-0.03-0.33-0.03-0.51-0.44-4.39-1.37-8.07-2.919995-11.79-1.65-3.87-3.5-6.6-5.93-8.7-2.2-1.9-4.28-2.78-6.58-2.76-0.23 0-0.47 0.01-0.71 0.03-2.58 0.22-4.72 1.48-6.75 3.95-2.02 2.46-3.35 5.52-4.31 9.58-0.96 4.05-1.21 8.03-0.81 12.6 0 0.18 0.04 0.33 0.04 0.51 0.44 4.43 1.33 8.11 2.91 11.83 1.62 3.83 3.5 6.56 5.93 8.66 0.41 0.35 0.81 0.67 1.21 0.95-2.52 1.95-4.21314 3.33314-6.29314 4.85314-1.33 0.97-2.91 2.13-4.75 3.49-4.01-3.76-7.14-8.48-9.88-14.71-3.24-7.36-4.97-14.73-5.49-23.43v-0.07c-0.48-8.7 0.37-16.18 2.76-23.92 2.4-7.74 5.6-13.34 10.25-17.94 4.64-4.61 9.32-6.93 14.96-7.22 0.44-0.02 0.87-0.03 1.3-0.03 5.11 0.01 9.67 1.71 14.389995 5.48 5.12 4.09 8.99 9.32 12.23 16.69 3.25 7.37 4.98 14.74 5.46 23.44v0.07c0.23 3.65 0.2 7.09-0.09 10.42z"/></g></svg>
