<?xml version="1.0" encoding="UTF-8"?>
<svg version="1.0" viewBox="0 0 502.30374 589.01263" xmlns="http://www.w3.org/2000/svg"><path d="m340 166-35-136.000002h-125l-5 170.000002-48 65-32.000006 62v230h325.000006v-257z" fill="#fff"/><path d="m306.74088 165.02266c0 13.94782-16.61513 16.89298-24.67264 21.89419-7.50181 6.94612-50.67892 26.56198-62.12614 26.56198-18.39334-3.88983-40.78764-31.34092-43.67723-49.56755 0-10.61368 13.50327-19.11573 21.06065-26.06186 7.50181-6.94612 16.17058-13.50327 30.95193-10.72482 11.44722 0 29.34043 5.44577 36.84225 12.39189 15.00363 5.00121 41.62118 8.22421 41.62118 25.50617zm-302.5193074 372.70129c17.0874674 7.77966 56.9026564 17.72651 70.9060444 19.39358 9.391161 3.88983 71.406173 18.33777 85.687403 18.33777 21.17179-15.00363 24.67263-37.73135 18.72675-60.73692-26.39527-42.62142-46.7891-98.46827-96.134372-117.69514-4.945641 2.44503-9.002178 9.05774-10.780386 10.16912-3.556416 2.27833-7.501815 7.22397-10.00242 13.39213-2.611743 6.44601-5.00121 14.33681-7.913026 25.83959-5.701379 11.44721-28.979233 1.11138-44.9219796 9.44673-5.8125174 17.61537 4.1065496 61.07033-5.5680138 81.85314zm459.3350274-65.29358c10.66925 8.72433 27.39551 15.22591 34.9529 29.72942-14.39237 17.17082-26.78426 23.22784-45.01089 31.8966-25.00605 11.89177-40.67651 23.06114-52.12372 30.8408-11.44722 10.00242-38.0092 16.11501-50.06767 14.44794-7.61295-5.00121-16.17058-65.73813-13.39213-85.57626 0-10.55811-12.94758-52.84612 7.77966-78.63014 20.06041-3.83426 37.2868 14.50351 50.0121 27.00654 10.50254-7.05727 27.11767-17.89322 39.67627-20.6161 4.1121-0.94468 4.27881-5.22349 12.892-0.7224 4.11211 2.16719 6.50158 8.94661 6.94613 14.72578 0.72239 9.3356 1.66707 29.11816 8.33535 36.89782z" fill="#f8bf11" stroke-width=".55569"/><path d="m147.53569 588.79186c-7.00169-1.11138-15.83716-3.88983-36.50883-12.22518-23.338982-9.44673-32.285591-11.66949-57.402779-17.22639-16.170579-2.77845-38.848288-8.6132-43.277137-10.39141-4.0065254-1.6115-8.1686435-4.94564-9.44117357-7.66852-0.59347692-1.22252-0.9057747025-3.38971-0.9057747025-6.16816 0-3.77869 0.4027641125-5.44576 3.313023772-14.05895 5.287946-15.67046 5.5435634-22.0609 1.4320131-35.95315-4.55332382-15.39261-3.4880661-26.50641 3.07241-32.11888 3.7064524-3.16743 6.4071064-3.72312 18.7823224-3.72312 12.025132 0 16.087225-0.61126 20.743908-3.16744 5.362408-2.94515 8.379805-7.39067 11.936221-17.61537 2.278329-6.61271 3.778692-9.22445 5.223486-9.22445 1.166949 0 2.167191 2.88959 2.167191 6.39043 0 3.11187-3.500847 16.22615-5.223486 19.61586-1.833777 3.66755-4.334382 6.50157-7.218413 8.16864-5.379079 3.16744-15.742698 4.00097-27.112115 2.27833-7.262869-1.16695-11.430544-0.8891-14.208994 0.77797-4.112106 2.5006-4.7844909 8.11307-1.800435 15.0592 5.779176 13.39213 6.884999 16.28171 8.107517 20.7828 1.450351 5.3902 1.683741 10.11356 0.772409 15.72603-0.905775 5.5569-2.500605 9.05775-7.218413 15.67046-2.433922 3.44528-4.6622396 7.11283-4.9567553 8.22421-0.833535 3.00073 0.3945399 5.27905 3.7064523 7.00169 2.811792 1.38923 42.910382 11.78063 71.239458 18.17107 8.724333 2.22276 24.617074 6.11259 35.286324 8.89104 10.72481 2.77845 21.83861 5.00121 24.7282 5.5569 8.94661 1.11138 17.22639 0 22.95-3.33414 7.94636-5.00121 13.50326-16.504 14.17009-29.89613 0.44455-8.83547-1.50036-16.78183-6.66828-27.0621-3.9454-7.8908-5.89031-10.94709-24.61706-39.23171-33.06356-49.78983-47.40036-66.40496-59.625546-68.96113-3.945399-0.77797-6.557142-0.33342-11.836197 2.05605-5.056779 2.27833-6.779418 2.38947-8.001936 0.55569-1.166949-1.77821-2.111622-11.72506-1.778208-18.94903 0.388983-8.39092 2.000484-13.39213 8.113074-25.28389 12.114042-23.45012 17.059683-34.67506 25.339473-57.23607 8.50205-23.11671 11.94733-29.50714 25.33946-46.95581 7.33511-9.5023 16.22615-22.06089 22.50544-31.7299 2.38947-3.61198 7.0017-10.33583 10.28027-14.94806 9.33559-13.11428 9.78014-14.3368 8.89104-25.50617-1.33366-16.83741-3.55642-73.29551-3.55642-91.744421-0.0556-17.559804 0.0556-20.227116 1.16695-27.339948 2.27833-14.53685 5.83475-25.445045 11.39165-34.891775 2.11162-3.689782 4.50109-6.607154 9.00218-11.152698 9.00217-9.079975 16.78183-13.4365843 29.95169-16.8818623 10.72481-2.80734586 13.44769-3.08630224 29.50714-3.071854303 16.55956 0.01444794297 21.83861 0.669606453 34.17493 4.213797303 28.89588 8.3020083 49.62312 28.3179623 56.56924 54.6743393 2.55618 9.724575 3.9454 21.282927 5.94589 49.178572 2.11162 29.84055 3.3897 40.34309 6.22372 52.12372 1.88935 8.00193 4.16768 13.28099 12.16961 28.34019 16.11501 30.22953 22.78329 40.78764 39.28729 62.015 26.00629 33.45254 38.56488 60.01452 46.01113 97.24575 6.39043 32.00775 7.1684 44.28849 3.50085 55.34673-2.22276 6.66828-4.38995 10.00242-12.00291 18.39333-16.00387 17.72652-33.84152 28.84032-46.0667 28.84032-11.1138 0-21.28293-7.55739-28.56246-21.28293-3.38971-7.55739-2.94516-13.61441-12.66974-11.44722-4.72336 1.27809-8.61319 7.0017-9.78014 14.39238-0.8891 5.27905-0.7224 25.50617 0.22228 30.56295 0.38898 2.27832 1.72263 9.05774 2.83401 15.00363 2.00049 10.28026 2.11163 11.39164 2.11163 21.94975 0 9.72458-0.22228 12.66973-1.83378 23.33898-1.50036 10.00242-1.77821 13.4477-1.6115 18.89346 0.22227 6.33487 0.33341 6.94613 2.22276 10.89152 2.27833 5.00121 7.27954 10.55811 11.61392 13.33656 9.55787 6.11259 22.89443 6.66828 34.11937 1.11138 3.16743-1.66707 7.77966-5.00121 15.55932-11.1138 12.61416-10.22469 22.00532-16.72626 29.11815-20.33825 2.72288-1.33366 9.28002-3.83426 14.55908-5.5569 21.89419-7.05726 31.89661-11.28051 37.45351-15.89273 6.61271-5.3902 9.78014-11.22494 8.61319-15.61489-1.50036-5.44576-7.77966-9.33559-20.6161-12.66973-9.669-2.55618-12.0029-3.72313-15.9483-8.05751-3.50085-3.83426-6.22373-9.33559-8.22421-16.6707-1.94492-7.1684-2.22276-18.78232-0.55569-23.33898 1.16695-3.223 2.33389-4.72336 3.66755-4.72336 1.55593 0 2.3339 2.72288 2.77845 10.00242 0.55569 8.11307 1.83378 12.39188 5.5569 17.83764 5.27906 7.83523 10.89152 12.89201 23.61683 21.3385 13.28099 8.7799 16.94854 13.00315 16.94854 19.727 0 6.39043-2.83402 9.50229-17.28196 19.22687-11.8362 8.00194-16.28172 10.55811-26.28414 14.89249-19.72699 8.6132-33.73038 18.17106-48.78958 33.17469-12.89201 12.78087-18.50447 16.6707-30.00726 18.33777-5.16791 0.55569-16.44842 0.55569-23.06113-0.55569-14.00339-1.66707-21.61634-6.66828-28.00678-18.33777-4.05654-7.22397-5.94588-8.89104-10.83595-9.44673-2.11163 0-25.45061-0.55569-51.90145-0.55569-43.45496 0-48.67844 0.55569-54.29091 1.11138-15.22591 2.77845-22.72772 6.11259-36.28656 17.22639-7.66852 6.66828-11.16937 8.89104-14.89249 10.55811-3.0563 1.11138-9.89128 1.66707-13.16985 1.11138zm50.12324-35.84201c1.22252-1.05581 3.0563-3.50085 4.11211-5.44576 1.66707-3.11186 1.88934-4.05654 2.05605-8.83547 0.38898-8.7799-1.50036-13.72554-7.72409-20.28269-4.27881-4.50109-4.89007-6.446-2.44504-7.55738 2.27833-1.00024 5.16792 0.27784 10.33584 4.61223 9.78014 8.27978 15.55932 9.669 36.89781 9.22445 22.95-0.55569 35.45303-2.94516 48.06719-9.28002 8.16864-4.11211 13.55884-8.7799 20.39382-17.83765 4.83451-6.33487 7.0017-8.50206 9.72458-9.61344 4.50109-1.88934 6.89055 1.77821 6.77942 10.50254-0.0556 4.05654-0.50012 6.61271-2.3339 13.39213-5.00121 18.05993-6.55714 28.22905-5.16792 33.39697 0.83354 3.00073 3.44528 5.27906 5.83475 5.05678 1.66707-0.16671 1.72264-0.27785 2.16719-3.50085 0.22227-1.83377 1.16695-8.0575 2.11162-13.89225 0.8891-5.77917 2.00048-13.28099 2.5006-16.6707 1.16695-8.7799 2.05606-36.00871 2.11163-65.57142 0.0556-25.50617 0.0556-25.56174 1.38922-29.45157 1.05581-3.00072 2.00049-4.50109 4.16768-6.66828 3.3897-3.33414 6.55714-4.55666 13.72554-5.05678l4.77893-0.38898 0.66683-3.38971c1.6115-7.72409 6.22373-12.11404 15.33705-14.55908 2.94515-0.77796 5.89031-1.05581 12.22518-1.05581 9.16888 0 11.72505 0.55569 20.00484 4.55666 3.72312 1.77821 6.94612 2.38947 6.94612 1.33366 0-0.83354-4.50109-5.05678-8.11307-7.61296-1.88935-1.38922-5.16792-3.16743-7.22397-4.00096-2.83402-1.16695-3.88983-1.88935-4.00097-2.72289-0.11114-0.66682 0.72239-4.38995 1.83377-8.33535 3.22301-11.66949 4.27882-19.06016 4.33439-30.17396 0.11113-18.2822-3.11187-30.39625-13.72555-50.90121-9.83571-19.00459-20.22711-32.95241-28.45132-38.1759-2.38947-1.44479-5.22349-2.44504-5.22349-1.83378 0 0.22228 2.00048 3.16744 4.38995 6.61271 11.33608 16.05945 23.1167 36.56441 28.11791 49.06743 4.05654 10.00242 7.11284 23.56126 8.05751 35.89758 1.6115 20.22711-3.88983 37.50907-13.33656 41.73231-1.88935 0.88911-4.00097 1.22252-8.6132 1.33366-7.3351 0.27785-8.33535-0.11114-10.28026-4.00097l-1.38923-2.77845-0.33341-22.2276c-0.61126-37.84249-2.38947-44.28849-22.2276-80.1305-6.11259-11.00266-7.33511-13.89225-9.94685-23.89467-5.33462-20.56053-10.50254-32.619-18.61562-43.51052-12.39188-16.55956-14.00338-23.45012-9.05774-38.7316 3.16743-9.94685 3.11186-15.05919-0.22228-18.4489-2.44503-2.50061-4.33438-3.38971-15.50375-6.94613-16.94854-5.39019-24.78377-10.22469-26.95096-16.61513-2.1672-6.2793-0.61126-16.50399 3.27857-21.56077 2.77845-3.66756 6.33486-5.22349 11.78062-5.22349 3.61199 0.0556 5.05678 0.33342 7.55739 1.4448 3.83426 1.83377 6.89055 4.44552 8.44649 7.39067 1.66707 3.16744 1.6115 10.66925-0.11114 16.17058-2.83402 8.94661-2.72288 8.00194-0.7224 9.78015 3.61199 3.223 9.33559 3.50084 11.8362 0.50012 2.16719-2.55618 2.83402-5.16792 3.11186-12.50303 0.33342-8.00193-0.50012-13.33656-3.77869-23.39455-4.50109-13.781112-9.00218-17.78208-22.61658-20.00484-10.16913-1.66707-15.72603-0.333414-20.83838 4.945641-8.00193 8.33535-12.0029 21.616349-10.3914 34.952909 0.8891 7.39067 0.7224 7.72409-3.44528 6.39043-3.72312-1.16695-11.89176-2.11162-16.61513-1.94491-5.05678 0.22227-5.50133-0.22228-5.50133-5.89032-0.0556-23.061137-7.00169-35.619731-19.72699-35.508593-8.83548 0-16.00388 6.723849-18.67119 17.393103-1.05581 4.16767-0.83353 16.11501 0.33341 23.06113 2.38947 13.66998 7.55739 20.50496 11.61393 15.17034 1.66707-2.27833 3.11186-5.16792 3.11186-6.11259 0-0.38898-1.27809-1.27809-2.77845-2.00048-1.66707-0.77797-3.16743-2.00049-3.83426-3.11187-3.16743-5.05678-4.72337-14.11452-3.38971-18.94903 1.72264-6.11259 10.11356-9.89128 15.89273-7.1684 4.89008 2.3339 10.11356 13.11429 9.55787 19.8937-0.44455 5.3902-1.44479 7.05727-6.33486 10.66925-2.44504 1.77821-6.39044 5.00121-8.83547 7.1684-2.44504 2.16719-5.44577 4.6678-6.66828 5.5569-6.22373 4.50109-9.72458 9.78015-9.72458 14.78136 0 3.27857 1.33366 5.05678 5.50133 7.11283 3.27857 1.66707 6.22373 4.55666 9.33559 9.11331 4.16768 6.00146 9.11332 7.8908 20.4494 7.83523 13.83668-0.0556 26.22856-3.00072 49.45641-11.66949 12.61416-4.72336 16.11501-6.22372 16.8374-7.3351 2.05606-3.00073 4.44552-5.11235 5.89032-5.11235 1.94491 0 3.66755 1.83377 3.66755 3.83426 0 3.38971-5.22349 6.16816-23.33898 12.33632-5.33462 1.83377-13.6144 5.16791-18.33777 7.39067-9.55787 4.55666-12.22518 5.50133-18.50448 6.72385-5.16791 1.00024-17.11525 1.11138-23.67239 0.22228-5.33462-0.7224-8.55763-0.33342-8.27978 1.05581 0.27784 1.44479 12.61416 11.05823 15.44818 12.11404 4.00097 1.38923 11.89177 1.66707 17.00411 0.50012 7.7241-1.66707 32.11889-12.16961 44.23293-18.94903 4.05654-2.27833 6.33486-3.223 7.77966-3.223 2.44503-0.0556 4.33438 1.50036 4.33438 3.44528 0 2.11162-4.11211 5.72361-8.61319 7.61295-7.94637 3.223-9.61344 4.11211-17.50424 9.11332-10.78039 6.89055-15.50375 10.33583-22.61658 16.55956-7.61296 6.61271-9.78015 7.50182-18.22663 7.61295-6.72385 0.0556-8.77991-0.61126-13.16986-4.38995-3.44528-2.94515-11.66949-13.16985-14.00339-17.44866-2.44503-4.44552-7.89079-10.61368-9.33559-10.61368-0.94467 0-1.05581 0.22227-2.66731 7.22397-1.11138 5.00121-5.22349 14.44794-11.89177 27.50665-8.00193 15.72603-8.39091 17.11525-8.39091 33.61925 0 13.78111 0.33341 12.61416-6.39044 21.94975-8.22421 11.55835-21.00508 41.73232-24.06138 56.95823-2.33389 11.39164-3.9454 30.78522-3.50084 41.67675 0.33341 8.66876-0.11114 11.22494-2.16719 12.50302-2.11163 1.33366-4.61223-0.0556-9.78015-5.16791-8.11307-8.16865-10.72482-14.94807-10.66925-27.89564 0.0556-8.22421 0.77797-14.55908 2.38947-20.67167 1.38923-5.22349 1.44479-6.72385 0.16671-6.446-1.33366 0.22227-4.33438 6.39043-5.779183 11.89176-0.889104 3.27857-1.222518 6.66828-1.444794 13.55884-0.222276 8.44649-0.166707 9.669 1.166949 15.55932 1.667078 7.39067 4.834508 14.28123 9.224458 20.06041 6.72385 8.89104 40.78765 39.12057 63.4598 56.40253 5.44576 4.11211 11.50278 9.28002 13.50327 11.44722 12.0029 13.00314 9.669 24.89491-6.72385 34.06379-2.55618 1.4448-4.6678 2.72288-4.6678 2.83402s2.11162 3.0563 4.6678 6.44601c9.39116 12.66973 14.83692 21.94975 16.72627 28.45132 1.27808 4.27882 1.22251 10.44698-0.16671 14.39237-0.55569 1.77821-0.88911 3.22301-0.66683 3.22301s1.38923-1.11138 2.61174-1.94492zm9.61344-413.76677c-1.72264-3.27857 1.50036-6.11259 7.00169-6.11259 1.94492 0 3.66756 0.22227 3.83426 0.55569 0.38899 0.66683-1.50036 1.66707-3.16743 1.66707-1.00024 0-1.55593 0.55569-2.38947 2.38946-0.8891 1.94492-1.38922 2.38947-2.88958 2.50061-1.33366 0.11114-1.88935-0.11114-2.38947-1.00024zm32.95242-2.38947c-3.22301-1.16695-5.72361-2.77845-5.11235-3.38971 0.16671-0.16671 2.05605-0.44455 4.16767-0.66683 5.00121-0.44455 6.89056 0.27785 6.89056 2.50061 0 1.11138-0.38898 1.88934-1.05581 2.27833-0.61126 0.27784-1.16695 0.55569-1.27809 0.50012-0.0556 0-1.72264-0.55569-3.61198-1.22252zm-115.69466 155.75991c5.33462-5.50133 6.83499-8.27978 6.50157-12.22518-0.16671-2.72288-1.22252-3.66756-3.44528-3.11187-1.6115 0.38899-2.5006 2.05606-3.94539 7.11284-0.61126 2.44503-1.61151 4.05653-3.88983 6.61271-3.0563 3.44527-3.61199 4.72336-2.38947 5.94588 1.27809 1.27809 2.3339 0.66683 7.1684-4.33438zm213.71837-93.80047c1.16695-0.7224 3.50085-6.44601 3.50085-8.6132 0-1.72264-0.33341-2.5006-1.72264-3.77869-0.94467-0.88911-1.94491-1.6115-2.22276-1.6115-0.27784 0-2.44503-0.88911-4.8345-2.05606-2.88959-1.38922-5.44576-3.11186-7.94637-5.5569-2.00048-1.88934-3.9454-3.50084-4.27881-3.50084-0.33342 0-0.77797 0.66683-1.00024 1.44479-0.61126 2.55618 0.27784 6.50157 2.61174 11.16937 2.00048 4.16768 2.72288 5.00121 7.33511 8.7799 4.94564 4.05654 6.77942 4.83451 8.55762 3.72313zm-133.69901-74.4069c0.66683-1.72263 0.50012-3.05629-1.22252-8.66876-0.7224-2.44504-1.77821-4.50109-2.88959-5.72361-1.6115-1.72264-1.88934-1.83377-3.16743-1.16695-1.83378 1.00025-1.66707 3.22301 0.50012 5.66804 1.6115 1.83378 3.00073 5.33463 3.66756 9.33559 0.44455 2.55618 2.22276 2.88959 3.11186 0.55569zm78.29672-1.55593c1.22252-1.44479 0.33341-8.33535-1.33366-10.89152-1.72264-2.61174-5.7236-5.00121-8.89104-5.33463-2.11162-0.27784-2.5006-0.11113-3.11186 0.94468-0.77797 1.44479-0.38898 1.88934 2.3339 2.72288 3.44528 1.11138 6.61271 5.83474 7.44624 11.05823 0.33342 1.94491 0.61126 2.3339 1.6115 2.3339 0.7224 0 1.55594-0.38899 1.94492-0.83354zm3.72312-74.851444c4.00097-2.761779 4.27882-2.884031 8.11308-2.984055 4.89007-0.127809 5.94588-0.539019 5.94588-2.261658 0-2.683983-9.22445-10.86374-13.11428-11.586137-3.88983-0.733511-5.27906 1.378111-6.05702 9.28558-0.33342 2.956271-0.7224 4.189903-2.00049 5.773619-1.72264 2.183862-2.00048 3.467506-0.8891 4.567772 1.11138 1.139164 3.50084 0.300072 8.00193-2.795121z" stroke-width=".55569"/></svg>
