<?xml version="1.0" encoding="UTF-8"?>
<svg version="1.0" viewBox="0 0 502 589" xmlns="http://www.w3.org/2000/svg"><path d="m340 166-35-136h-125l-5 170-48 65-32 62v230h325v-257z" fill="#fff"/><path d="m307 165c0 13.9-16.6 16.9-24.7 21.9-7.5 6.95-50.7 26.6-62.1 26.6-18.4-3.89-40.8-31.3-43.7-49.6 0-10.6 13.5-19.1 21.1-26.1 7.5-6.95 16.2-13.5 31-10.7 11.4 0 29.3 5.45 36.8 12.4 15 5 41.6 8.22 41.6 25.5zm-303 373c17.1 7.78 56.9 17.7 70.9 19.4 9.39 3.89 71.4 18.3 85.7 18.3 21.2-15 24.7-37.7 18.7-60.7-26.4-42.6-46.8-98.5-96.1-118-4.95 2.45-9 9.06-10.8 10.2-3.56 2.28-7.5 7.22-10 13.4-2.61 6.45-5 14.3-7.91 25.8-5.7 11.4-29 1.11-44.9 9.45-5.81 17.6 4.11 61.1-5.57 81.9zm459-65.3c10.7 8.72 27.4 15.2 35 29.7-14.4 17.2-26.8 23.2-45 31.9-25 11.9-40.7 23.1-52.1 30.8-11.4 10-38 16.1-50.1 14.4-7.61-5-16.2-65.7-13.4-85.6 0-10.6-12.9-52.8 7.78-78.6 20.1-3.83 37.3 14.5 50 27 10.5-7.06 27.1-17.9 39.7-20.6 4.11-0.945 4.28-5.22 12.9-0.722 4.11 2.17 6.5 8.95 6.95 14.7 0.722 9.34 1.67 29.1 8.34 36.9z" fill="#f8bf11" stroke-width=".556"/><path d="m148 589c-7-1.11-15.8-3.89-36.5-12.2-23.3-9.45-32.3-11.7-57.4-17.2-16.2-2.78-38.8-8.61-43.3-10.4-4.01-1.61-8.17-4.95-9.44-7.67-0.593-1.22-0.906-3.39-0.906-6.17 0-3.78 0.403-5.45 3.31-14.1 5.29-15.7 5.54-22.1 1.43-36-4.55-15.4-3.49-26.5 3.07-32.1 3.71-3.17 6.41-3.72 18.8-3.72 12 0 16.1-0.611 20.7-3.17 5.36-2.95 8.38-7.39 11.9-17.6 2.28-6.61 3.78-9.22 5.22-9.22 1.17 0 2.17 2.89 2.17 6.39 0 3.11-3.5 16.2-5.22 19.6-1.83 3.67-4.33 6.5-7.22 8.17-5.38 3.17-15.7 4-27.1 2.28-7.26-1.17-11.4-0.889-14.2 0.778-4.11 2.5-4.78 8.11-1.8 15.1 5.78 13.4 6.88 16.3 8.11 20.8 1.45 5.39 1.68 10.1 0.772 15.7-0.906 5.56-2.5 9.06-7.22 15.7-2.43 3.45-4.66 7.11-4.96 8.22-0.834 3 0.395 5.28 3.71 7 2.81 1.39 42.9 11.8 71.2 18.2 8.72 2.22 24.6 6.11 35.3 8.89 10.7 2.78 21.8 5 24.7 5.56 8.95 1.11 17.2 0 23-3.33 7.95-5 13.5-16.5 14.2-29.9 0.445-8.84-1.5-16.8-6.67-27.1-3.95-7.89-5.89-10.9-24.6-39.2-33.1-49.8-47.4-66.4-59.6-69-3.95-0.778-6.56-0.333-11.8 2.06-5.06 2.28-6.78 2.39-8 0.556-1.17-1.78-2.11-11.7-1.78-18.9 0.389-8.39 2-13.4 8.11-25.3 12.1-23.5 17.1-34.7 25.3-57.2 8.5-23.1 11.9-29.5 25.3-47 7.34-9.5 16.2-22.1 22.5-31.7 2.39-3.61 7-10.3 10.3-14.9 9.34-13.1 9.78-14.3 8.89-25.5-1.33-16.8-3.56-73.3-3.56-91.7-0.0556-17.6 0.0556-20.2 1.17-27.3 2.28-14.5 5.83-25.4 11.4-34.9 2.11-3.69 4.5-6.61 9-11.2 9-9.08 16.8-13.4 30-16.9 10.7-2.81 13.4-3.09 29.5-3.07 16.6 0.0144 21.8 0.67 34.2 4.21 28.9 8.3 49.6 28.3 56.6 54.7 2.56 9.72 3.95 21.3 5.95 49.2 2.11 29.8 3.39 40.3 6.22 52.1 1.89 8 4.17 13.3 12.2 28.3 16.1 30.2 22.8 40.8 39.3 62 26 33.5 38.6 60 46 97.2 6.39 32 7.17 44.3 3.5 55.3-2.22 6.67-4.39 10-12 18.4-16 17.7-33.8 28.8-46.1 28.8-11.1 0-21.3-7.56-28.6-21.3-3.39-7.56-2.95-13.6-12.7-11.4-4.72 1.28-8.61 7-9.78 14.4-0.889 5.28-0.722 25.5 0.222 30.6 0.389 2.28 1.72 9.06 2.83 15 2 10.3 2.11 11.4 2.11 21.9 0 9.72-0.222 12.7-1.83 23.3-1.5 10-1.78 13.4-1.61 18.9 0.222 6.33 0.333 6.95 2.22 10.9 2.28 5 7.28 10.6 11.6 13.3 9.56 6.11 22.9 6.67 34.1 1.11 3.17-1.67 7.78-5 15.6-11.1 12.6-10.2 22-16.7 29.1-20.3 2.72-1.33 9.28-3.83 14.6-5.56 21.9-7.06 31.9-11.3 37.5-15.9 6.61-5.39 9.78-11.2 8.61-15.6-1.5-5.45-7.78-9.34-20.6-12.7-9.67-2.56-12-3.72-15.9-8.06-3.5-3.83-6.22-9.34-8.22-16.7-1.94-7.17-2.22-18.8-0.556-23.3 1.17-3.22 2.33-4.72 3.67-4.72 1.56 0 2.33 2.72 2.78 10 0.556 8.11 1.83 12.4 5.56 17.8 5.28 7.84 10.9 12.9 23.6 21.3 13.3 8.78 16.9 13 16.9 19.7 0 6.39-2.83 9.5-17.3 19.2-11.8 8-16.3 10.6-26.3 14.9-19.7 8.61-33.7 18.2-48.8 33.2-12.9 12.8-18.5 16.7-30 18.3-5.17 0.556-16.4 0.556-23.1-0.556-14-1.67-21.6-6.67-28-18.3-4.06-7.22-5.95-8.89-10.8-9.45-2.11 0-25.5-0.556-51.9-0.556-43.5 0-48.7 0.556-54.3 1.11-15.2 2.78-22.7 6.11-36.3 17.2-7.67 6.67-11.2 8.89-14.9 10.6-3.06 1.11-9.89 1.67-13.2 1.11zm50.1-35.8c1.22-1.06 3.06-3.5 4.11-5.45 1.67-3.11 1.89-4.06 2.06-8.84 0.389-8.78-1.5-13.7-7.72-20.3-4.28-4.5-4.89-6.45-2.45-7.56 2.28-1 5.17 0.278 10.3 4.61 9.78 8.28 15.6 9.67 36.9 9.22 23-0.556 35.5-2.95 48.1-9.28 8.17-4.11 13.6-8.78 20.4-17.8 4.83-6.33 7-8.5 9.72-9.61 4.5-1.89 6.89 1.78 6.78 10.5-0.0556 4.06-0.5 6.61-2.33 13.4-5 18.1-6.56 28.2-5.17 33.4 0.834 3 3.45 5.28 5.83 5.06 1.67-0.167 1.72-0.278 2.17-3.5 0.222-1.83 1.17-8.06 2.11-13.9 0.889-5.78 2-13.3 2.5-16.7 1.17-8.78 2.06-36 2.11-65.6 0.0556-25.5 0.0556-25.6 1.39-29.5 1.06-3 2-4.5 4.17-6.67 3.39-3.33 6.56-4.56 13.7-5.06l4.78-0.389 0.667-3.39c1.61-7.72 6.22-12.1 15.3-14.6 2.95-0.778 5.89-1.06 12.2-1.06 9.17 0 11.7 0.556 20 4.56 3.72 1.78 6.95 2.39 6.95 1.33 0-0.834-4.5-5.06-8.11-7.61-1.89-1.39-5.17-3.17-7.22-4-2.83-1.17-3.89-1.89-4-2.72-0.111-0.667 0.722-4.39 1.83-8.34 3.22-11.7 4.28-19.1 4.33-30.2 0.111-18.3-3.11-30.4-13.7-50.9-9.84-19-20.2-33-28.5-38.2-2.39-1.44-5.22-2.45-5.22-1.83 0 0.222 2 3.17 4.39 6.61 11.3 16.1 23.1 36.6 28.1 49.1 4.06 10 7.11 23.6 8.06 35.9 1.61 20.2-3.89 37.5-13.3 41.7-1.89 0.889-4 1.22-8.61 1.33-7.34 0.278-8.34-0.111-10.3-4l-1.39-2.78-0.333-22.2c-0.611-37.8-2.39-44.3-22.2-80.1-6.11-11-7.34-13.9-9.95-23.9-5.33-20.6-10.5-32.6-18.6-43.5-12.4-16.6-14-23.5-9.06-38.7 3.17-9.95 3.11-15.1-0.222-18.4-2.45-2.5-4.33-3.39-15.5-6.95-16.9-5.39-24.8-10.2-27-16.6-2.17-6.28-0.611-16.5 3.28-21.6 2.78-3.67 6.33-5.22 11.8-5.22 3.61 0.0556 5.06 0.333 7.56 1.44 3.83 1.83 6.89 4.45 8.45 7.39 1.67 3.17 1.61 10.7-0.111 16.2-2.83 8.95-2.72 8-0.722 9.78 3.61 3.22 9.34 3.5 11.8 0.5 2.17-2.56 2.83-5.17 3.11-12.5 0.333-8-0.5-13.3-3.78-23.4-4.5-13.8-9-17.8-22.6-20-10.2-1.67-15.7-0.333-20.8 4.95-8 8.34-12 21.6-10.4 35 0.889 7.39 0.722 7.72-3.45 6.39-3.72-1.17-11.9-2.11-16.6-1.94-5.06 0.222-5.5-0.222-5.5-5.89-0.0556-23.1-7-35.6-19.7-35.5-8.84 0-16 6.72-18.7 17.4-1.06 4.17-0.834 16.1 0.333 23.1 2.39 13.7 7.56 20.5 11.6 15.2 1.67-2.28 3.11-5.17 3.11-6.11 0-0.389-1.28-1.28-2.78-2-1.67-0.778-3.17-2-3.83-3.11-3.17-5.06-4.72-14.1-3.39-18.9 1.72-6.11 10.1-9.89 15.9-7.17 4.89 2.33 10.1 13.1 9.56 19.9-0.445 5.39-1.44 7.06-6.33 10.7-2.45 1.78-6.39 5-8.84 7.17-2.45 2.17-5.45 4.67-6.67 5.56-6.22 4.5-9.72 9.78-9.72 14.8 0 3.28 1.33 5.06 5.5 7.11 3.28 1.67 6.22 4.56 9.34 9.11 4.17 6 9.11 7.89 20.4 7.84 13.8-0.0556 26.2-3 49.5-11.7 12.6-4.72 16.1-6.22 16.8-7.34 2.06-3 4.45-5.11 5.89-5.11 1.94 0 3.67 1.83 3.67 3.83 0 3.39-5.22 6.17-23.3 12.3-5.33 1.83-13.6 5.17-18.3 7.39-9.56 4.56-12.2 5.5-18.5 6.72-5.17 1-17.1 1.11-23.7 0.222-5.33-0.722-8.56-0.333-8.28 1.06 0.278 1.44 12.6 11.1 15.4 12.1 4 1.39 11.9 1.67 17 0.5 7.72-1.67 32.1-12.2 44.2-18.9 4.06-2.28 6.33-3.22 7.78-3.22 2.45-0.0556 4.33 1.5 4.33 3.45 0 2.11-4.11 5.72-8.61 7.61-7.95 3.22-9.61 4.11-17.5 9.11-10.8 6.89-15.5 10.3-22.6 16.6-7.61 6.61-9.78 7.5-18.2 7.61-6.72 0.0556-8.78-0.611-13.2-4.39-3.45-2.95-11.7-13.2-14-17.4-2.45-4.45-7.89-10.6-9.34-10.6-0.945 0-1.06 0.222-2.67 7.22-1.11 5-5.22 14.4-11.9 27.5-8 15.7-8.39 17.1-8.39 33.6 0 13.8 0.333 12.6-6.39 21.9-8.22 11.6-21 41.7-24.1 57-2.33 11.4-3.95 30.8-3.5 41.7 0.333 8.67-0.111 11.2-2.17 12.5-2.11 1.33-4.61-0.0556-9.78-5.17-8.11-8.17-10.7-14.9-10.7-27.9 0.0556-8.22 0.778-14.6 2.39-20.7 1.39-5.22 1.44-6.72 0.167-6.45-1.33 0.222-4.33 6.39-5.78 11.9-0.889 3.28-1.22 6.67-1.44 13.6-0.222 8.45-0.167 9.67 1.17 15.6 1.67 7.39 4.83 14.3 9.22 20.1 6.72 8.89 40.8 39.1 63.5 56.4 5.45 4.11 11.5 9.28 13.5 11.4 12 13 9.67 24.9-6.72 34.1-2.56 1.44-4.67 2.72-4.67 2.83s2.11 3.06 4.67 6.45c9.39 12.7 14.8 21.9 16.7 28.5 1.28 4.28 1.22 10.4-0.167 14.4-0.556 1.78-0.889 3.22-0.667 3.22s1.39-1.11 2.61-1.94zm9.61-414c-1.72-3.28 1.5-6.11 7-6.11 1.94 0 3.67 0.222 3.83 0.556 0.389 0.667-1.5 1.67-3.17 1.67-1 0-1.56 0.556-2.39 2.39-0.889 1.94-1.39 2.39-2.89 2.5-1.33 0.111-1.89-0.111-2.39-1zm33-2.39c-3.22-1.17-5.72-2.78-5.11-3.39 0.167-0.167 2.06-0.445 4.17-0.667 5-0.445 6.89 0.278 6.89 2.5 0 1.11-0.389 1.89-1.06 2.28-0.611 0.278-1.17 0.556-1.28 0.5-0.0556 0-1.72-0.556-3.61-1.22zm-116 156c5.33-5.5 6.83-8.28 6.5-12.2-0.167-2.72-1.22-3.67-3.45-3.11-1.61 0.389-2.5 2.06-3.95 7.11-0.611 2.45-1.61 4.06-3.89 6.61-3.06 3.45-3.61 4.72-2.39 5.95 1.28 1.28 2.33 0.667 7.17-4.33zm214-93.8c1.17-0.722 3.5-6.45 3.5-8.61 0-1.72-0.333-2.5-1.72-3.78-0.945-0.889-1.94-1.61-2.22-1.61-0.278 0-2.45-0.889-4.83-2.06-2.89-1.39-5.45-3.11-7.95-5.56-2-1.89-3.95-3.5-4.28-3.5-0.333 0-0.778 0.667-1 1.44-0.611 2.56 0.278 6.5 2.61 11.2 2 4.17 2.72 5 7.34 8.78 4.95 4.06 6.78 4.83 8.56 3.72zm-134-74.4c0.667-1.72 0.5-3.06-1.22-8.67-0.722-2.45-1.78-4.5-2.89-5.72-1.61-1.72-1.89-1.83-3.17-1.17-1.83 1-1.67 3.22 0.5 5.67 1.61 1.83 3 5.33 3.67 9.34 0.445 2.56 2.22 2.89 3.11 0.556zm78.3-1.56c1.22-1.44 0.333-8.34-1.33-10.9-1.72-2.61-5.72-5-8.89-5.33-2.11-0.278-2.5-0.111-3.11 0.945-0.778 1.44-0.389 1.89 2.33 2.72 3.45 1.11 6.61 5.83 7.45 11.1 0.333 1.94 0.611 2.33 1.61 2.33 0.722 0 1.56-0.389 1.94-0.834zm3.72-74.9c4-2.76 4.28-2.88 8.11-2.98 4.89-0.128 5.95-0.539 5.95-2.26 0-2.68-9.22-10.9-13.1-11.6-3.89-0.734-5.28 1.38-6.06 9.29-0.333 2.96-0.722 4.19-2 5.77-1.72 2.18-2 3.47-0.889 4.57 1.11 1.14 3.5 0.3 8-2.8z" stroke-width=".556"/></svg>
