<?xml version="1.0" encoding="UTF-8"?>
<svg version="1.0" viewBox="0 0 426.88293 205.5544" xmlns="http://www.w3.org/2000/svg"><g transform="translate(-700.996,-3664.6334)"><path d="m1089.888 3743.73 0.368 1.167h-102.23c-4.608 0-8.54 1.597-11.919 4.792-3.194 3.317-4.792 7.311-4.792 11.918 0 4.546 1.598 8.417 4.792 11.611 3.379 3.379 7.311 5.038 11.919 5.038h122.135c1.782 0 3.563-0.184 5.284-0.553 2.027-0.43 3.562-1.106 4.854-1.966 1.474-0.86 2.58-1.843 3.562-2.826 0.86-0.921 1.782-2.15 2.581-3.686 0.676-1.167 1.105-2.703 1.29-4.73 0.184-1.659 0.184-3.256 0.062-4.977-0.799-5.959-1.413-10.076-1.844-12.287-0.921-4.73-2.15-9.154-3.562-13.086-5.714-16.526-13.885-30.042-24.391-40.609-20.335-19.844-44.479-29.489-72.495-28.875-22.485 0.43-45.401 10.075-68.932 28.875-5.345 4.301-11.365 9.646-17.939 16.035-7.372 7.126-16.157 16.157-26.294 26.97l-23.407 25.312c1.659 2.15 4.854 6.144 9.522 11.918 4.546 5.713 8.294 10.321 11.059 13.884l8.355 10.26c11.673 14.745 18.8 23.653 21.441 26.848 5.836 7.311 13.208 14.253 22.116 20.889 7.557 5.591 15.052 10.137 22.67 13.761 9.892 4.731 19.905 7.925 29.797 9.523h0.308c6.328 0.983 12.717 1.352 19.106 1.229h0.245c5.346-0.184 10.567-0.798 15.482-1.781 10.199-1.659 19.107-4.854 26.848-9.584 10.751-5.836 20.827-14.499 30.104-26.233 0.799-0.983 1.536-1.843 2.273-2.765l4.73-5.959c2.826-3.625 3.994-7.802 3.44-12.471-0.491-4.485-2.519-8.11-6.144-10.998-3.563-2.826-7.68-3.994-12.287-3.625-4.546 0.676-8.294 2.765-11.059 6.389l-7.065 8.54c-3.133 3.994-6.45 7.434-10.014 10.567-3.072 2.642-6.513 5.222-10.383 7.618-3.133 1.598-6.635 2.949-10.444 4.178-5.099 1.536-10.812 2.457-16.956 2.703-4.239 0.184-8.479-0.123-12.841-0.922h0.246c-6.881-0.983-13.823-3.317-20.827-6.881-10.014-4.73-19.045-10.997-27.031-18.799-3.871-3.809-11.243-12.41-22.056-25.803-9.892-12.287-15.175-19.045-15.974-20.458 1.167-1.29 2.272-2.58 3.317-3.809 13.946-16.158 27.032-29.367 39.381-39.626 17.693-14.745 34.281-22.302 49.763-22.67 9.4-0.308 18.001 1.229 25.988 4.607 7.803 3.318 15.052 8.54 21.81 15.605 8.112 8.602 13.518 17.141 16.038 25.742z" fill="#fcb017"/><path d="m863.434 3731.136c0.922 0.983 4.055 4.73 9.338 11.12 2.396 2.949 7.803 9.522 16.158 19.598l23.407-25.312c-0.308-0.369-0.676-0.799-1.045-1.167-0.307-0.369-0.859-1.044-1.72-2.027-0.983-1.229-1.782-2.273-2.458-3.072s-1.843-2.15-3.44-4.24c-1.843-2.273-3.379-4.177-4.607-5.59-10.383-12.165-18.001-20.643-22.977-25.619-20.09-20.09-44.849-30.165-74.216-30.165-27.216 0-51.114 10.075-71.634 30.165-19.476 19.476-29.244 43.559-29.244 72.434 0 28.445 10.015 52.589 29.858 72.433 20.089 20.151 44.418 30.166 72.802 30.166 2.642 0 5.16-0.123 7.74-0.307 24.882-1.782 46.446-11.734 64.693-29.858 1.781-1.781 4.238-4.484 7.126-8.048l10.506 13.762c2.949 3.809 6.819 5.898 11.55 6.513 4.854 0.553 9.093-0.615 12.84-3.502 3.81-3.072 6.021-6.82 6.574-11.366 0.799-4.976-0.308-9.338-3.257-13.147l-23.284-29.858c-3.686-4.792-7.679-7.434-11.856-7.864-4.73-0.615-8.908 0.983-12.533 4.669-2.458 3.318-4.977 6.758-7.557 10.137-5.223 6.758-10.137 12.103-14.807 16.096-15.113 12.656-31.025 19.045-47.735 19.045-19.106 0-35.449-6.758-48.903-20.274-13.332-13.332-19.967-29.551-19.967-48.596 0-19.721 6.635-36.37 19.967-50.132 12.901-12.717 28.813-18.984 47.675-18.799 13.086 0.246 25.25 3.932 36.37 10.997 4.976 3.194 10.26 7.373 15.789 12.595 2.703 2.393 5.651 5.527 8.847 9.213z" fill="#6c6c6c"/></g></svg>
