<?xml version="1.0" encoding="UTF-8"?>
<svg version="1.1" viewBox="0 0 91.531502 91.531502" xmlns="http://www.w3.org/2000/svg"><rect x="2.8605003" y="2.8605003" width="85.810501" height="85.810501" rx="0" fill="#58595b" stroke="#c7c7c7" stroke-width="5.721"/><path d="m69.487246 17.130532h-5.91c-0.361 0-0.689 0.211-0.836 0.542l-16.752 37.434-17.201-37.442c-0.149-0.326-0.473-0.534-0.831-0.534h-5.913c-0.241 0-0.478 0.098-0.646 0.27-0.171 0.17-0.269 0.406-0.269 0.647v55.374997c0 0.241 0.098 0.477 0.269 0.647 0.17 0.169 0.405 0.268 0.646 0.268h5.912c0.243 0 0.473-0.096 0.646-0.269 0.172-0.173 0.267-0.402 0.267-0.646v-37.906997l13.654 29.578997c0.148 0.324 0.474 0.531 0.832 0.531h5.055c0.359 0 0.684-0.209 0.833-0.536l13.417-29.514997v37.847997c0 0.241 0.098 0.477 0.27 0.647 0.17 0.169 0.406 0.268 0.646 0.268h5.91c0.246 0 0.475-0.096 0.649-0.269 0.172-0.173 0.267-0.402 0.267-0.646v-55.375997c0-0.241-0.096-0.477-0.267-0.647-0.17-0.171-0.405-0.269-0.648-0.269z" fill="#fff"/></svg>
