<?xml version="1.0" encoding="UTF-8"?>
<svg version="1.0" viewBox="0 0 124.24495 134.62202" xmlns="http://www.w3.org/2000/svg"><path d="m61.89261 7.5763515c-0.831751 0.06764-1.637325 0.323057-2.356083 0.747051l-46.259664 27.1524095c-1.6773 0.984627-2.712264 2.779653-2.724051 4.724559-0.01179 1.944915 1.001343 3.752354 2.666586 4.757236l33.990797 20.486421v46.546992l-28.617779-16.521312v-37.691121l-11.0333619-7.476696v48.357147c3e-3 1.968052 1.054015 3.785512 2.7583399 4.769632l39.651141 22.89997c1.705682 0.98439 3.806741 0.98497 5.512964 2e-3 1.706224-0.98345 2.758877-2.80179 2.762056-4.77115v-59.218589c0.0049-1.94022-1.009782-3.740384-2.672142-4.740898l-28.703977-17.297095 35.484897-20.831215 35.714767 20.543888-28.876382 17.613155c-1.642567 1.002288-2.644279 2.787945-2.643409 4.712165v59.160649c0.0075 1.97314 1.068122 3.79207 2.781664 4.77039 1.713543 0.97832 3.819094 0.96708 5.522093-0.0295l39.105214-22.89997c1.69328-0.99139 2.73261-2.80749 2.72961-4.769632v-48.270947l-11.03336 7.151616v37.958741l-28.07186 16.463842v-46.432062l34.1632-20.831214c1.65937-1.014894 2.66171-2.828586 2.63814-4.773574-0.0236-1.944979-1.0696-3.733846-2.75307-4.70822l-46.547-26.8363505c-0.966128-0.556146-2.078065-0.806585-3.18933-0.718318z" fill="#073950" stroke="#f2f2f2" stroke-linejoin="round" stroke-width="15.1181" style="paint-order:stroke fill markers"/></svg>
