<?xml version="1.0" encoding="UTF-8"?>
<svg version="1.1" viewBox="0 0 562.84662 899.06622" xmlns="http://www.w3.org/2000/svg" xmlns:xlink="http://www.w3.org/1999/xlink"><defs><linearGradient id="a" x1="170.62309" x2="176.65331" y1="404.98309" y2="767.12122" gradientTransform="translate(769.2308,-19.23077)" gradientUnits="userSpaceOnUse" xlink:href="#b"/><linearGradient id="b"><stop stop-color="#e22218"/><stop stop-color="#480000" offset="1"/></linearGradient><linearGradient id="c" x1="234.29401" x2="239.5067" y1="643.97449" y2="301.08221" gradientTransform="rotate(180,737.452,530.8695)" gradientUnits="userSpaceOnUse" xlink:href="#b"/></defs><g transform="translate(-840.64466,-71.720712)" stroke="#000" stroke-linecap="round" stroke-linejoin="round" stroke-width="4.6"><path d="m1046.484 74.02067s56.1597 48.64352 74.282 134.789c14.6201 69.49728 18.6605 163.0957-16.5674 275.2988-25.2618 80.46037-61.3426 151.2746-60.7251 239.932 0.4999 71.7883 17.1849 105.5622 17.1849 105.5622s-104.3842-70.35408-157.1765-146.0522c-45.35177-65.02923-65.36008-139.924-59.54968-191.668 7.57576-67.46519 40.74613-107.4628 72.74712-142.6424 45.4201-52.48477 102.35486-80.76212 116.20786-148.4055 0 0 19.34 47.30608 16.6865 105.9813-3.4505 54.33412-34.4111 84.49273-64.71257 132.9142 0 0-11.60294-15.61028-7.05748-47.42846 4.54545-31.81818 23.24545-80.38237 23.24545-80.38237s-53.81567 72.47946-65.17125 99.96033c-33.851 65.2489-42.5774 127.972 2.15243 200.2182 22.05032 32.51753 52.91129 48.30633 52.91129 48.30633s-4.72094-81.17844 17.20473-144.9561c22.4361-65.26222 63.1379-133.5713 70.674-211.4244 6.2455-89.65311-12.2691-132.9362-32.3364-230.0029z" fill="url(#a)"/><path d="m1197.652 968.4872s-56.1598-48.64352-74.2821-134.789c-14.6201-69.49728-18.6604-163.0957 16.5675-275.2988 25.2618-80.46037 61.3425-151.2746 60.725-239.932-0.4999-71.7883-17.1849-105.5622-17.1849-105.5622s104.3842 70.35408 157.1765 146.0522c45.3518 65.02923 65.3601 139.924 59.5497 191.668-7.5758 67.46519-40.7462 107.4628-72.7471 142.6424-45.4201 52.48477-102.355 80.76212-116.2079 148.4055 0 0-19.3401-47.30608-16.6865-105.9813 3.4504-54.33412 34.411-84.49273 64.7125-132.9142 0 0 11.603 15.61028 7.0575 47.42846-4.5454 31.81818-23.2455 80.38237-23.2455 80.38237s53.8157-72.47946 65.1713-99.96033c33.851-65.2489 42.5774-127.972-2.1524-200.2182-22.0503-32.51753-52.9113-48.30633-52.9113-48.30633s4.7209 81.17844-17.2048 144.9561c-22.436 65.26222-63.1379 133.5713-70.674 211.4244-6.2454 89.65311 12.2691 132.9362 32.3365 230.0029z" fill="url(#c)"/></g></svg>
