<?xml version="1.0" encoding="UTF-8"?>
<svg version="1.1" viewBox="0 0 274.07285 350.00021" xmlns="http://www.w3.org/2000/svg"><path d="m74.190319 0.00488137c-1.77 0.055-3.676 0.708-5.838 2.41499993-5.295-2.04299993-10.43-2.75199993-15.022 1.406-7.091-0.919-9.395 0.978-11.141 3.194-1.557-0.032-11.648-1.6-16.275 5.3029997-11.629-1.376-15.305 6.841-11.141 14.502-2.375 3.677-4.8359996 7.309 0.718 14.319-1.965 3.904-0.747 8.139 3.882 13.265-1.222 5.488 1.18 9.36 5.486 12.378-0.806 7.51 6.887 11.876 9.184 13.433 0.882 4.376 2.72 8.505 11.507 10.789 1.449 6.521 6.73 7.648 11.844 9.016999-16.901 9.824-31.396 22.75-31.297 54.466l-2.476 4.417c-19.3789996 11.785-36.815 49.664-9.55 80.453 1.781 9.637 4.768 16.56 7.427 24.221 3.978 30.873 29.937 45.328 36.783 47.037 10.034 7.64 20.719 14.892 35.179 19.971 13.631001 14.06 28.399001 19.417 43.247001 19.408 0.218 0 0.439 3e-3 0.657 0 14.849 9e-3 29.616-5.349 43.248-19.408 14.459-5.079 25.146-12.331 35.179-19.974 6.847-1.709 32.806-16.164 36.783-47.037 2.659-7.661 5.646-14.584 7.427-24.221 27.265-30.791 9.83-68.672-9.551-80.458l-2.479-4.416c0.098-31.713-14.396-44.64-31.297-54.466 5.113-1.368999 10.395-2.494999 11.843-9.016999 8.786-2.284 10.626-6.413 11.507-10.789 2.297-1.556 9.99-5.922 9.185-13.433 4.306-3.018 6.708-6.89 5.485-12.378 4.629-5.125 5.848-9.36 3.883-13.265 5.555-7.006 3.09-10.639 0.719-14.316 4.161-7.662 0.488-15.878-11.145-14.502-4.627-6.9029997-14.715-5.3349997-16.275-5.3029997-1.746-2.215-4.049-4.113-11.139-3.194-4.593-4.15699993-9.727-3.44799993-15.023-1.406-6.289-4.962-10.45-0.984-15.203 0.52-7.614-2.48799993-9.355 0.92-13.096 2.308-8.304-1.754-10.827 2.065-14.808 6.0979997l-4.63-0.092c-12.524 7.381-18.746 22.41-20.952 30.135-2.207-7.727-8.414-22.756-20.936-30.135l-4.63 0.092c-3.986-4.0319997-6.509-7.8519997-14.813001-6.0979997-3.739-1.386-5.476-4.79399993-13.094-2.306-3.12-0.987-5.989-3.03899993-9.368-2.93399993z"/><path d="m177.65032 253.65788v-0.391c-0.119-20.27-18.029-36.609-40.01-36.5-21.979 0.101-39.709001 16.621-39.590001 36.891v0.39c0.11 20.271 18.030001 36.61 40.010001 36.5 21.981-0.1 39.701-16.62 39.59-36.89zm-62.83-104.84c-16.489001-10.811-40.260001-3.83-53.079001 15.57-12.83 19.41-9.86 43.9 6.64 54.7 16.49 10.811 40.250001 3.84 53.080001-15.57 12.82-19.411 9.85-43.9-6.641-54.7zm44.511-1.961c-16.49 10.811-19.47 35.301-6.64 54.702 12.819 19.41 36.59 26.379 53.08 15.58 16.489-10.811 19.459-35.301 6.64-54.702-12.83-19.41-36.591-26.379-53.08-15.58zm-126.939001 19.621c-29.5399996 16.87-24.4099996 54.411-8.471 67.23 14.49 6.431 26.28-72 8.471-67.23zm205.769001-0.98c-17.81-4.77-6.011 73.67 8.47 67.231 15.939-12.811 21.07-50.361-8.47-67.231zm-60.5-58.4c-11.32 1.9 54.25 59.16 55.26 46.38 1.04-33.32-24.53-51.57-55.26-46.38zm-84.900001-0.98c-30.729-5.19-56.289 13.069-55.26 46.39 1.01 12.769 66.580001-44.49 55.26-46.39zm44.139001-7.769999c-18.34-0.48-35.939 13.609999-35.979 21.779999-0.05 9.931 14.5 20.101 36.11 20.351 22.06 0.16 36.14-8.131 36.21-18.381 0.079-11.61-20.07-23.930999-36.341-23.749999zm1.121 203.599999c-15.891-0.39-40.261001 6.37-39.961001 15.03-0.25 5.91 19.131001 22.959 38.900001 22.109 19.09 0.33 38.811-16.699 38.55-24.23-0.039-7.759-21.499-13.599-37.489-12.909zm-59.060001-45.969c-13.061-15.16-30.029-24.201-41.02-17.51-7.351 5.59-8.69 24.619 1.77 43.319 15.51 22.29 37.34 24.521 46.33 19.101 9.5-7.101 4.311-31.201-7.08-44.91zm115.840001-4.361c-12.32 14.43-19.17 40.75-10.189 49.22 8.59 6.59 31.649 5.67 48.689-17.97 12.37-15.88 8.221-42.39 1.16-49.431-10.5-8.119-25.561 2.271-39.66 18.181z" fill="#bc1142"/><path d="m49.247319 32.479881c25.851 8.78 49.17 20.491 68.710001 36.6 22.939-10.85 7.12-38.21-4.07-49.07-0.57 2.87-1.209 4.68-1.949 5.22-3.641-3.97-6.621-8.03-11.311-11.85-0.02 2.24 1.11 4.68-1.680001 6.46-2.52-3.44-5.92-6.51-10.44-9.11 2.181 3.81 0.38 4.96-0.79 6.54-3.449-3-6.729-6.04-13.09-8.3999997 1.74 2.1499997 4.17 4.2499997 1.59 6.7199997-3.55-2.25-7.119-4.5-15.56-6.0999997 1.899 2.1499997 5.84 4.2999997 3.45 6.4599997-4.461-1.73-9.391-2.99-14.851-3.72 2.61 2.19 4.79 4.32 2.65 6.01-4.771-1.49-11.34-3.49-17.77-1.76l4.07 4.15c0.45 0.56-9.52 0.43-16.09 0.53 2.4 3.39 4.84 6.65 6.27 12.47-0.65 0.67-3.91 0.29-6.98 0 3.15 6.73 8.62 8.43 9.9 11.31-1.93 1.48-4.6 1.1-7.52 0.09 2.27 4.75 7.03 8 10.79 11.85-0.95 0.681-2.61 1.091-6.54 0.62 3.47 3.74 7.67 7.17 12.64 10.25-0.88 1.04-3.91 0.99-6.72 1.061 4.51 4.479 10.3 6.799 15.74 9.729-2.71 1.88-4.65 1.44-6.72 1.41 3.839 3.21 10.38 4.88 16.44 6.81-1.149 1.82-2.3 2.32-4.771 2.83 6.42 3.61 15.621 1.96 18.211 3.801-0.62 1.81-2.391 2.989-4.51 3.979 10.34 0.61 38.609001-0.38 44.029001-22.101-10.579-11.809-29.899001-25.659-63.128001-42.789zm176.309001 0c-33.219 17.13-52.539 30.98-63.119 42.79 5.42 21.721 33.689 22.711 44.029 22.101-2.119-0.99-3.889-2.17-4.51-3.979 2.59-1.841 11.791-0.19 18.211-3.801-2.471-0.51-3.621-1.01-4.771-2.83 6.061-1.93 12.602-3.6 16.441-6.81-2.07 0.03-4.01 0.47-6.721-1.41 5.439-2.931 11.23-5.25 15.74-9.729-2.811-0.07-5.84-0.021-6.721-1.061 4.971-3.08 9.17-6.51 12.641-10.25-3.93 0.471-5.59 0.061-6.539-0.62 3.76-3.851 8.52-7.1 10.789-11.85-2.92 1.01-5.59 1.39-7.52-0.09 1.279-2.88 6.75-4.58 9.9-11.31-3.07 0.29-6.33 0.67-6.98 0 1.43-5.82 3.879-9.09 6.279-12.47-6.58-0.1-16.549 0.03-16.1-0.53l4.07-4.16c-6.42-1.73-13 0.28-17.77 1.77-2.141-1.69 0.039-3.83 2.648-6.01-5.459 0.73-10.389 1.98-14.85 3.71-2.379-2.15 1.551-4.3 3.451-6.4499997-8.441 1.5999997-12.012 3.8499997-15.561 6.0999997-2.58-2.47-0.15-4.57 1.59-6.7199997-6.359 2.3599997-9.641 5.3999997-13.09 8.3999997-1.17-1.58-2.971-2.74-0.791-6.54-4.52 2.6-7.92 5.67-10.43 9.1-2.799-1.78-1.67-4.21-1.68-6.45-4.699 3.82-7.68 7.88-11.32 11.85-0.73-0.54-1.379-2.35-1.949-5.22-11.189 10.86-27.01 38.221-4.061 49.07 19.524-16.11 42.844-27.821 68.694-36.601z" fill="#75a928"/></svg>
