<?xml version="1.0" encoding="UTF-8"?>
<svg version="1.1" viewBox="0 0 127.2 127.2" xmlns="http://www.w3.org/2000/svg"><path d="m85 55h28v29h-28m-33 40-43-10v-101l43-10" fill="#fff"/><path d="m74.999998 127.2h19.6c18.000002 0 32.600002-14.6 32.600002-32.600002v-62c0-18-14.6-32.59999953-32.600002-32.59999953h-19.7c-0.5 0-0.8 0.3999999959-0.8 0.7999999959v125.5000015c0 0.5 0.4 0.9 0.9 0.9zm24.2-70.100002c7.100002 0 12.900002 5.8 12.900002 12.9s-5.8 12.9-12.900002 12.9c-7.1 0-12.9-5.8-12.9-12.9 0.1-7.1 5.8-12.9 12.9-12.9zm-79.4-18.9c0 6.6 5.4 12 12 12s12-5.4 12-12-5.4-12-12-12c-6.7 0-12 5.3-12 12zm40.6-38.19999953h-27.8c-18 0-32.59999953 14.59999953-32.59999953 32.59999953v62c0 18.000002 14.59999953 32.600002 32.59999953 32.600002h27.8c0.5 0 0.9-0.4 0.9-0.9v-125.4000015c0-0.5-0.4-0.8999999959-0.9-0.8999999959zm-9.3 117.0000015h-18.5c-6 0-11.6-2.3-15.8-6.6-4.2-4.2-6.6-9.8-6.6-15.800002v-62c0-6 2.3-11.6 6.6-15.8 4.2-4.2 9.8-6.6 15.8-6.6h18.5z" fill="#e60012"/></svg>
