<?xml version="1.0" encoding="UTF-8"?>
<svg version="1.1" viewBox="0 0 87.523422 91.53186" xmlns="http://www.w3.org/2000/svg"><path d="m41.397194 89.037532c-10.161812-7.05663-17.646156-14.46232-27.228377-26.94221l-1.853115-2.4135s-6.3601043-9.9793-7.8411273-13.17565c-2.342443-5.07021-3.76341001-10.51208-4.33768801-16.61202-1.16403399-12.36429 5.19271601-23.9549302 15.37355631-28.0315402 3.702574-1.48257999 6.05544-1.86587999 11.43349-1.862589989 4.463578 0.002999999042 5.016749 0.05509999904 7.366001 0.697209999 3.105624 0.84885999 6.55936 2.49217999 8.763 4.16951999 2.27727 1.73339 5.19457 4.87146 6.8378 7.3552502l1.3768 2.08108 1.2902-0.93764c0.70961-0.51571 2.26175-1.65744 3.4492-2.53718 4.96321-3.6771002 9.73578-4.8465102 15.18542-3.7208602 7.85867 1.62326 14.24016 8.0747402 15.92914 16.1038502 0.70811 3.36624 0.3931 10.06446-0.62723 13.33713-1.04469 3.35083-3.45026 8.33124-6.64478 13.75716l-1.37012 2.32716-5.63241 9.20543-2.10912 3.10313c-2.75038 4.0466-5.90014 8.29335-8.61255 11.61213-3.02549 3.70185-9.07372 9.68883-11.96035 11.83923-2.44945 1.82473-4.55468 3.153-4.97532 3.13913-0.12742-4e-3 -1.84301-1.1266-3.81242-2.49421z" fill="#fdca30"/><g transform="matrix(.79374999 0 0 .79374999 -.0409219 -18.333245)"><path d="m60.244 50.71c2.803-1.165 5.878-2.905 8.537-3.337 2.675-0.429 6.848-0.469 9.95 0.94 2.22 0.938 6.029 2.35 6.316 3.692 0.295 1.33-1.398 6.152-3.335 8.547-3.623 2.804-11.049 7.696-11.049 8.355 0 0.674 6.377 4.81 8.538 8.196 2.164 3.387 2.69 7.639 2.223 11.528-0.465 3.85-1.67 5.297-3.338 8.317-1.653 2.967-4.503 5.204-6.838 7.551-2.521 2.57-5.328 4.853-8.313 6.822-2.454 1.634-4.158 1.87-8.126 2.69-3.459 0.7-7.021 0.286-10.537 0.053-2.393-0.583-4.859-1.109-7.252-1.809-2.285-0.817-1.693-3.494-1.578-5.361 0.527-1.461 0.47-3.292 1.813-4.277 3.861-3.276 8.364-5.615 12.348-8.766 0.522-0.299 0.467-1.367-0.062-1.658-2.047-1.867-4.74-3.097-6.378-5.375-1.344-1.985-3.34-3.563-4.1-5.902-1.222-3.753 0.117-9.791 0.816-11.297 0.705-1.513 1.353-1.766 2.174-2.526 4.209-3.8 8.132-7.884 12.345-11.642 1.806-1.694 3.384-3.856 5.846-4.741z" fill="#231f20"/><g fill="#fff"><path d="m67.847 58.448c3.515-2.646 11.4 0.224 11.645 0.879 0.249 0.648-6.314 5.606-9.889 7.829-1.99 1.048-3.508-1.111-3.975-2.744-1.179-2.227 0.232-4.799 2.219-5.964z"/><path d="m42.517 69.271c4.269-3.812 8.011-8.14 12.639-11.525-1.286 3.74-0.234 7.892 1.806 11.233 3.224 5.027 7.79 9.006 12.641 12.466 2.633 1.579 3.453 5.374 1.643 7.894-1.121 2.152-3.457 3.693-5.913 3.628-3.336-0.416-6.733-1.009-10-1.706-1.108-0.288-2.104 0.29-3.107 0.638-2.158-2.214-4.968-3.616-7.194-5.781-1.872-1.812-3.564-3.857-4.454-6.327-0.462-2.22-0.288-4.494 0.295-6.659 0.356-1.341 0.475-2.865 1.644-3.861z"/><path d="m45.031 99.285c2.581-1.639 4.916-3.742 7.663-5.144-0.292 1.286-0.528 2.629-0.703 3.914-5.089 2.926-9.066 7.319-13.921 10.593 0.115-1.694-0.408-3.913 1.107-5.223 1.813-1.508 3.925-2.738 5.854-4.14z"/><path d="m52.281 100.157c0.946-0.582 1.997 0 2.875 0.355 3.503 1.572 7.423 2.162 11.229 1.693 2.048-0.466 4.099-0.997 6.09-1.52-4.804 4.57-9.82 9.666-16.561 11.443-6.449 1.686-17.167-0.464-17.318-1.338-0.204-1.179 2.871-2.436 4.274-3.601 3.033-2.454 5.91-5.216 9.411-7.032z"/></g></g></svg>
