<?xml version="1.0" encoding="UTF-8"?>
<svg version="1.1" viewBox="0 0 768 768" xmlns="http://www.w3.org/2000/svg"><rect y="128" width="640" height="640" ry="0" fill="#b00" stroke-width="1785.52"/><rect x="64" y="64" width="640" height="640" ry="0" fill="#27d9d1" stroke-width="1785.52"/><g transform="translate(192,64)"><rect x="-64" y="-64" width="640" height="640" ry="0" fill="#505050" stroke-width="1785.52"/><path d="m433.479 205.747c75.09 43.351 100.812 139.37 57.461 214.46s-139.37 100.812-214.46 57.461c-7.304-4.21-14.135-8.93-20.48-14.074l31.824-170.903 123.221-97.645c7.632 2.924 15.13 6.491 22.434 10.701z" fill="#ff8"/><path d="m78.521 205.747c-75.09 43.351-100.812 139.37-57.461 214.46s139.37 100.812 214.46 57.461c7.304-4.21 14.135-8.93 20.48-14.074l-31.824-170.903-123.221-97.645c-7.632 2.924-15.13 6.491-22.434 10.701z" fill="#f88"/><path d="m412.999 170.271c0 8.432-0.667 16.707-1.953 24.775l-155.046 61.15-155.046-61.15c-1.286-8.068-1.953-16.343-1.953-24.775 0-86.713 70.298-156.999 156.999-156.999s156.999 70.285 156.999 156.999z" fill="#88f"/><path d="m312.09 316.957h-112.18c-8.7 54.525 12.023 110.943 56.09 146.637 44.066-35.694 64.789-92.112 56.09-146.637z" fill="#ffc488"/><path d="m256 219.797 56.09 97.16c51.577-19.74 90.086-65.906 98.955-121.911-52.947-20.322-112.18-10.046-155.045 24.751z" fill="#8f8"/><path d="m100.954 195.046c8.869 56.005 47.379 102.171 98.955 121.911l56.09-97.16c-42.865-34.797-102.097-45.073-155.045-24.751z" fill="#f8f"/><path d="m292.981 263.208c9.876 17.119 16.173 35.331 19.109 53.748-17.423 6.661-36.326 10.313-56.09 10.313s-38.667-3.652-56.09-10.313c2.936-18.418 9.233-36.629 19.109-53.749 9.876-17.107 22.494-31.667 36.981-43.411 14.486 11.746 27.105 26.305 36.981 43.412z" fill="#fff"/></g></svg>
