<?xml version="1.0" encoding="UTF-8"?>
<svg version="1.1" viewBox="0 0 612 612" xmlns="http://www.w3.org/2000/svg"><path d="m376 0v3.3c0 38.76-31.42 70.17-70.17 70.17-38.76 0-70.17-31.42-70.17-70.17v-3.3h-235.66v612h612v-612z" fill="#654ff0"/><path d="m142.16 329.81h40.56l27.69 147.47h0.5l33.28-147.47h37.94l30.06 149.28h0.59l31.56-149.28h39.78l-51.69 216.69h-40.25l-29.81-147.47h-0.78l-31.91 147.47h-41zm287.69 0h63.94l63.5 216.69h-41.84l-13.81-48.22h-72.84l-10.66 48.22h-40.75zm24.34 53.41-17.69 79.5h55.06l-20.31-79.5z" fill="#fff"/></svg>
