<?xml version="1.0" encoding="UTF-8"?>
<svg version="1.1" viewBox="0 0 26.505381 19.899999" xmlns="http://www.w3.org/2000/svg"><path d="m13.3 13.2c2 0 3.5-1.6 3.5-4.0000002v-9.199999991h-6.9999998v9.199999991c0 2.5000002 1.4999998 4.0000002 3.4999998 4.0000002m9.8-13.20000019h-3v9.299999991c0 4.5000002-2.6 6.9000002-6.8 6.9000002-4.1999998 0-6.7999998-2.4-6.7999998-6.9000002v-9.299999991h-3c-2.2 0-3.499999955 1.299999991-3.499999955 3.499999991v11.4000002c0 3.3 1.699999955 5 4.999999955 5h16.4999998c3.3 0 5-1.7 5-5v-11.4000002c0.1-2.2-1.2-3.499999991-3.4-3.499999991" fill="#0096c8"/></svg>
