<?xml version="1.0" encoding="UTF-8"?>
<svg version="1.1" viewBox="0 0 170.252 150.22112" xmlns="http://www.w3.org/2000/svg"><path d="m170.252 20.708289c-32.996 13.642-48.861 5.973-63.16-3.65l-16.278 56.462c14.285 9.678 31.531 17.635 63.188 3.463l16.25-56.275z" fill="#91c300"/><path d="m62.984 134.21329c-14.331-9.645-29.91-17.578-62.984-3.902l16.195-56.568001c33.081-13.678 48.973-5.938 63.29 3.766l-16.501 56.703001z" fill="#00b4f1"/><path d="m82.235 67.298289c-8.628-5.81-17.907-11.233-31.085-11.333-8.695-0.067-19.045 2.403-32.184 7.836l16.283-56.4220003c33.059-13.669 48.938-5.933 63.245 3.7640003l-16.259 56.155z" fill="#f8682c"/><path d="m88.069 82.952289c14.313 9.637 30.212 17.313001 63.243 3.66l-16.281 56.234001c-33.037 13.664-48.903 5.926-63.201-3.77l16.239-56.124001z" fill="#ffc300"/></svg>
