<?xml version="1.0" encoding="UTF-8"?>
<svg version="1.1" viewBox="0 0 33.74 33.358" xmlns="http://www.w3.org/2000/svg" xmlns:xlink="http://www.w3.org/1999/xlink"><defs><path id="r" d="M17.75 10.656c-1.848 2.256-9.593 11.425-8.906 17.625.478.61 1.005 1.18 1.562 1.719-.081-4.746 5.452-9.825 9.77-13.658z" fill="url(#h)"/><path id="c" d="M17.75 10.656c-1.848 2.256-9.593 11.425-8.906 17.625.478.61 1.005 1.18 1.562 1.719-.081-4.746 5.452-9.825 9.77-13.658z" fill="url(#i)"/><path id="b" d="M17.75 10.656c-1.848 2.256-9.593 11.425-8.906 17.625.478.61 1.005 1.18 1.562 1.719-.081-4.746 5.452-9.825 9.77-13.658z" fill="url(#j)"/></defs><defs><linearGradient id="e"><stop stop-color="#fff"/><stop stop-color="#fff" stop-opacity="0" offset="1"/></linearGradient><linearGradient id="h" x1="17.161" x2="13.206" y1="21.54" y2="16.9" gradientUnits="userSpaceOnUse" xlink:href="#a"/><linearGradient id="a"><stop stop-color="#97ca43"/><stop stop-color="#97ca43" stop-opacity="0" offset="1"/></linearGradient><linearGradient id="i" x1="11.656" x2="13.586" y1="18.172" y2="19.232" gradientUnits="userSpaceOnUse"><stop stop-color="#458f41"/><stop stop-color="#458f41" stop-opacity="0" offset="1"/></linearGradient><linearGradient id="j" x1="19.903" x2="14.902" y1="19.232" y2="17.2" gradientUnits="userSpaceOnUse"><stop stop-color="#e5edae"/><stop stop-color="#e5edae" stop-opacity="0" offset="1"/></linearGradient><linearGradient id="k" x1="19.663" x2="23.287" y1="13.09" y2="5.046" gradientTransform="matrix(1.0075 0 0 1.00084 -29.773 -20.348)" gradientUnits="userSpaceOnUse" xlink:href="#a"/><linearGradient id="l" x1="17.497" x2="17.321" y1="4.098" y2="6.218" gradientTransform="matrix(1.0075 0 0 1.00084 -29.773 -20.348)" gradientUnits="userSpaceOnUse" xlink:href="#d"/><linearGradient id="d"><stop stop-color="#459743"/><stop stop-color="#459743" stop-opacity="0" offset="1"/></linearGradient><linearGradient id="m" x1="19.339" x2="18.286" y1="4.717" y2="6.306" gradientTransform="matrix(1.0075 0 0 1.00084 -29.773 -20.348)" gradientUnits="userSpaceOnUse" xlink:href="#d"/><linearGradient id="n" x1="19.515" x2="21.796" y1="15.668" y2="11.517" gradientTransform="matrix(1.0075 0 0 1.00084 -29.773 -20.348)" gradientUnits="userSpaceOnUse"><stop stop-color="#e6edae"/><stop stop-color="#e6edae" stop-opacity="0" offset="1"/></linearGradient><linearGradient id="o" x1="17.551" x2="20.647" y1="12.031" y2="6.988" gradientTransform="matrix(-1.00417 0 0 1.00169 14.78 -20.35)" gradientUnits="userSpaceOnUse" xlink:href="#a"/><linearGradient id="p" x1="19.552" x2="18.76" y1="5.069" y2="6.348" gradientTransform="matrix(-1.00417 0 0 1.00169 14.78 -20.35)" gradientUnits="userSpaceOnUse"><stop stop-color="#46873f"/><stop stop-color="#46873f" stop-opacity="0" offset="1"/></linearGradient><linearGradient id="q" x1="20.124" x2="21.972" y1="15.569" y2="10.981" gradientTransform="matrix(-1.00417 0 0 1.00169 14.78 -20.35)" gradientUnits="userSpaceOnUse"><stop stop-color="#e6eead"/><stop stop-color="#e6eead" stop-opacity="0" offset="1"/></linearGradient><radialGradient id="f" cx="23.69" cy="12.765" r="14.35" gradientTransform="matrix(0 1.84582 -1.57561 0 41.66 -29.484)" gradientUnits="userSpaceOnUse" xlink:href="#e"/><radialGradient id="g" cx="23.69" cy="12.765" r="14.35" gradientTransform="matrix(0 1.15253 -.98381 0 34.106 -13.06)" gradientUnits="userSpaceOnUse" xlink:href="#e"/></defs><g transform="matrix(1.1756 0 0 1.13013 -10.56 -2.976)"><ellipse cx="23.333" cy="17.392" rx="14.35" ry="14.758" fill="#666"/><ellipse cx="23.333" cy="17.392" rx="14.35" ry="14.758" fill="url(#f)"/><ellipse cx="23.333" cy="17.392" rx="14.35" ry="14.758" fill="url(#g)"/></g><path d="M12.604 9.374c-1.861 2.258-9.664 11.435-8.973 17.64.482.61 1.012 1.18 1.574 1.72-.082-4.75 5.493-9.833 9.843-13.67z" fill="#00a54d"/><use transform="matrix(1.0075 0 0 1.00084 -5.279 -1.291)" xlink:href="#r"/><use transform="matrix(1.0075 0 0 1.00084 -5.279 -1.291)" xlink:href="#c"/><use transform="matrix(1.0075 0 0 1.00084 -5.279 -1.291)" xlink:href="#b"/><path d="M8.026 2.493a17.046 17.046 0 0 0-2.708 2.033c2.676.509 5.36 2.865 6.832 4.817 1.282 2.003 1.978 3.84 2.883 5.736.613-.52 1.236-1.048 1.91-1.588l-.003-8.234c-1.994-1.239-5.29-2.87-8.883-2.764-.007.005-.024-.004-.031 0z" fill="#02a74d"/><g stroke-width="1.004"><path transform="translate(24.355 19.088)" d="M-16.33-16.594a17.05 17.05 0 0 0-2.707 2.033c2.676.508 5.36 2.864 6.832 4.816 1.282 2.003 1.978 3.84 2.883 5.736.613-.519 1.236-1.047 1.91-1.588l-.003-8.233c-1.994-1.24-5.29-2.87-8.883-2.764-.008.004-.024-.005-.031 0z" fill="url(#k)"/><path transform="translate(24.355 19.088)" d="M-16.33-16.594a17.05 17.05 0 0 0-2.707 2.033c2.676.508 5.36 2.864 6.832 4.816 1.282 2.003 1.978 3.84 2.883 5.736.613-.519 1.236-1.047 1.91-1.588l-.003-8.233c-1.994-1.24-5.29-2.87-8.883-2.764-.008.004-.024-.005-.031 0z" fill="url(#l)"/><path transform="translate(24.355 19.088)" d="M-16.33-16.594a17.05 17.05 0 0 0-2.707 2.033c2.676.508 5.36 2.864 6.832 4.816 1.282 2.003 1.978 3.84 2.883 5.736.613-.519 1.236-1.047 1.91-1.588l-.003-8.233c-1.994-1.24-5.29-2.87-8.883-2.764-.008.004-.024-.005-.031 0z" fill="url(#m)"/><path transform="translate(24.355 19.088)" d="M-16.33-16.594a17.05 17.05 0 0 0-2.707 2.033c2.676.508 5.36 2.864 6.832 4.816 1.282 2.003 1.978 3.84 2.883 5.736.613-.519 1.236-1.047 1.91-1.588l-.003-8.233c-1.994-1.24-5.29-2.87-8.883-2.764-.008.004-.024-.005-.031 0z" fill="url(#n)"/></g><path d="M21.152 9.374c1.861 2.258 9.665 11.435 8.973 17.64a16.88 16.88 0 0 1-1.574 1.72c.082-4.75-5.493-9.833-9.843-13.67z" fill="#00a54d"/><use transform="matrix(-1.0075 0 0 1.00084 39.035 -1.291)" xlink:href="#r"/><use transform="matrix(-1.0075 0 0 1.00084 39.035 -1.291)" xlink:href="#c"/><use transform="matrix(-1.0075 0 0 1.00084 39.035 -1.291)" xlink:href="#b"/><path d="M25.736 2.493c.97.586 1.87 1.275 2.699 2.035-2.668.509-5.343 2.867-6.81 4.82-1.278 2.005-1.971 3.844-2.873 5.741-.611-.519-1.232-1.048-1.905-1.59l.004-8.24c1.988-1.24 5.272-2.871 8.853-2.766.008.005.024-.004.032 0z" fill="#02a74d"/><g stroke-width="1.003"><path transform="translate(24.355 19.088)" d="M1.38-16.594a17 17 0 0 1 2.7 2.034c-2.668.51-5.343 2.868-6.81 4.821-1.278 2.005-1.972 3.843-2.873 5.74-.611-.518-1.232-1.047-1.905-1.589l.004-8.24c1.988-1.24 5.272-2.872 8.854-2.766.007.004.023-.005.03 0z" fill="url(#o)"/><path transform="translate(24.355 19.088)" d="M1.38-16.594a17 17 0 0 1 2.7 2.034c-2.668.51-5.343 2.868-6.81 4.821-1.278 2.005-1.972 3.843-2.873 5.74-.611-.518-1.232-1.047-1.905-1.589l.004-8.24c1.988-1.24 5.272-2.872 8.854-2.766.007.004.023-.005.03 0z" fill="url(#p)"/><path transform="translate(24.355 19.088)" d="M1.38-16.594a17 17 0 0 1 2.7 2.034c-2.668.51-5.343 2.868-6.81 4.821-1.278 2.005-1.972 3.843-2.873 5.74-.611-.518-1.232-1.047-1.905-1.589l.004-8.24c1.988-1.24 5.272-2.872 8.854-2.766.007.004.023-.005.03 0z" fill="url(#q)"/></g></svg>
