<?xml version="1.0" encoding="UTF-8"?>
<svg version="1.1" viewBox="2.472168 .6079102 33.739657 33.357589" xmlns="http://www.w3.org/2000/svg" xmlns:xlink="http://www.w3.org/1999/xlink"><defs><linearGradient id="gr0" x1="17.160885" x2="13.205508" y1="21.540094" y2="16.899706" gradientUnits="userSpaceOnUse" xlink:href="#e"/><linearGradient id="gr1" x1="11.656183" x2="13.586248" y1="18.171713" y2="19.23148" gradientUnits="userSpaceOnUse" xlink:href="#f"/><linearGradient id="gr2" x1="19.902828" x2="14.902203" y1="19.23148" y2="17.20026" gradientUnits="userSpaceOnUse" xlink:href="#g"/></defs><radialGradient id="a" cx="23.689831" cy="12.765525" r="14.35" gradientTransform="matrix(0,2.086007,-1.8522846,0,40.887381,-35.688778)" gradientUnits="userSpaceOnUse" xlink:href="#b"/><linearGradient id="b"><stop stop-color="#fff"/><stop stop-color="#fff" stop-opacity="0" offset="1"/></linearGradient><radialGradient id="c" cx="23.689831" cy="12.765525" r="14.35" gradientTransform="matrix(0,1.302501,-1.156565,0,32.006155,-17.127654)" gradientUnits="userSpaceOnUse" xlink:href="#b"/><linearGradient id="e"><stop stop-color="#97ca43"/><stop stop-color="#97ca43" stop-opacity="0" offset="1"/></linearGradient><linearGradient id="f" x1="11.656183" x2="13.586248" y1="18.171713" y2="19.23148" gradientUnits="userSpaceOnUse"><stop stop-color="#458f41"/><stop stop-color="#458f41" stop-opacity="0" offset="1"/></linearGradient><linearGradient id="g" x1="19.902828" x2="14.902203" y1="19.23148" y2="17.20026" gradientUnits="userSpaceOnUse"><stop stop-color="#e5edae"/><stop stop-color="#e5edae" stop-opacity="0" offset="1"/></linearGradient><linearGradient id="h" x1="19.663462" x2="23.287384" y1="13.089741" y2="5.046401" gradientUnits="userSpaceOnUse" xlink:href="#e"/><linearGradient id="i" x1="17.496838" x2="17.321375" y1="4.098434" y2="6.2179689" gradientUnits="userSpaceOnUse" xlink:href="#j"/><linearGradient id="j"><stop stop-color="#459743"/><stop stop-color="#459743" stop-opacity="0" offset="1"/></linearGradient><linearGradient id="k" x1="19.339172" x2="18.286409" y1="4.7166319" y2="6.306283" gradientUnits="userSpaceOnUse" xlink:href="#j"/><linearGradient id="l" x1="19.514631" x2="21.79562" y1="15.66756" y2="11.516805" gradientUnits="userSpaceOnUse"><stop stop-color="#e6edae"/><stop stop-color="#e6edae" stop-opacity="0" offset="1"/></linearGradient><linearGradient id="m" x1="17.550945" x2="20.646738" y1="12.030865" y2="6.9876728" gradientTransform="matrix(-1.0041673 0 0 1.0016853 41.607374 -.65521772)" gradientUnits="userSpaceOnUse" xlink:href="#e"/><linearGradient id="n" x1="19.55179" x2="18.759596" y1="5.0687752" y2="6.3482499" gradientTransform="matrix(-1.0041673 0 0 1.0016853 41.607374 -.65521772)" gradientUnits="userSpaceOnUse"><stop stop-color="#46873f"/><stop stop-color="#46873f" stop-opacity="0" offset="1"/></linearGradient><linearGradient id="o" x1="20.123928" x2="21.972382" y1="15.569291" y2="10.980831" gradientTransform="matrix(-1.0041673 0 0 1.0016853 41.607374 -.65521772)" gradientUnits="userSpaceOnUse"><stop stop-color="#e6eead"/><stop stop-color="#e6eead" stop-opacity="0" offset="1"/></linearGradient><g stroke-width="1.15264"><path d="m36.211825 17.286705c0 9.211444-7.552879 16.678794-16.869828 16.678794s-16.8698291-7.46735-16.8698291-16.678794c0-9.2114438 7.5528801-16.67879414 16.8698291-16.67879414s16.869828 7.46735034 16.869828 16.67879414z" fill="#666"/><path d="m36.211825 17.286705c0 9.211444-7.552879 16.678794-16.869828 16.678794s-16.8698291-7.46735-16.8698291-16.678794c0-9.2114438 7.5528801-16.67879414 16.8698291-16.67879414s16.869828 7.46735034 16.869828 16.67879414z" fill="url(#a)"/><path d="m36.211825 17.286705c0 9.211444-7.552879 16.678794-16.869828 16.678794s-16.8698291-7.46735-16.8698291-16.678794c0-9.2114438 7.5528801-16.67879414 16.8698291-16.67879414s16.869828 7.46735034 16.869828 16.67879414z" fill="url(#c)"/></g><path d="m15.076358 9.9817797c-1.861548 2.2579363-9.6646202 11.4347183-8.9730572 17.6398513 0.4819051 0.610532 1.0122639 1.181321 1.5742205 1.720198-0.0819-4.749695 5.4923927-9.832866 9.8426487-13.669958z" fill="#00a54d" stroke-width="1.00417"/><g transform="matrix(1.0075011 0 0 1.0008426 -11.08535 .39043678) translate(8.216927,-1.072982)"><path d="m17.75 10.65625c-1.847688 2.256035-9.5926641 11.425091-8.90625 17.625 0.4783172 0.610018 1.0047273 1.180327 1.5625 1.71875-0.08129-4.745696 5.4515-9.824588 9.769368-13.658449z" fill="url(#gr0)"/><path d="m17.75 10.65625c-1.847688 2.256035-9.5926641 11.425091-8.90625 17.625 0.4783172 0.610018 1.0047273 1.180327 1.5625 1.71875-0.08129-4.745696 5.4515-9.824588 9.769368-13.658449z" fill="url(#gr1)"/><path d="m17.75 10.65625c-1.847688 2.256035-9.5926641 11.425091-8.90625 17.625 0.4783172 0.610018 1.0047273 1.180327 1.5625 1.71875-0.08129-4.745696 5.4515-9.824588 9.769368-13.658449z" fill="url(#gr2)"/></g><g transform="matrix(1.0075011 0 0 1.0008426 -2.9460113 -.65205972)"><path d="m13.34375 3.75c-0.965665 0.5849225-1.862933 1.2722918-2.6875 2.03125 2.656255 0.5079752 5.32084 2.8624365 6.78125 4.8125 1.272411 2.001434 1.963367 3.836737 2.861547 5.731248 0.608132-0.518349 1.226492-1.046358 1.896265-1.586717l-0.0039-8.2265622c-1.979009-1.2377932-5.249787-2.8669635-8.816412-2.7617188-0.0076 0.00461-0.02361-0.00463-0.03125 0z" fill="#02a74d"/><path d="m13.34375 3.75c-0.965665 0.5849225-1.862933 1.2722918-2.6875 2.03125 2.656255 0.5079752 5.32084 2.8624365 6.78125 4.8125 1.272411 2.001434 1.963367 3.836737 2.861547 5.731248 0.608132-0.518349 1.226492-1.046358 1.896265-1.586717l-0.0039-8.2265622c-1.979009-1.2377932-5.249787-2.8669635-8.816412-2.7617188-0.0076 0.00461-0.02361-0.00463-0.03125 0z" fill="url(#h)"/><path d="m13.34375 3.75c-0.965665 0.5849225-1.862933 1.2722918-2.6875 2.03125 2.656255 0.5079752 5.32084 2.8624365 6.78125 4.8125 1.272411 2.001434 1.963367 3.836737 2.861547 5.731248 0.608132-0.518349 1.226492-1.046358 1.896265-1.586717l-0.0039-8.2265622c-1.979009-1.2377932-5.249787-2.8669635-8.816412-2.7617188-0.0076 0.00461-0.02361-0.00463-0.03125 0z" fill="url(#i)"/><path d="m13.34375 3.75c-0.965665 0.5849225-1.862933 1.2722918-2.6875 2.03125 2.656255 0.5079752 5.32084 2.8624365 6.78125 4.8125 1.272411 2.001434 1.963367 3.836737 2.861547 5.731248 0.608132-0.518349 1.226492-1.046358 1.896265-1.586717l-0.0039-8.2265622c-1.979009-1.2377932-5.249787-2.8669635-8.816412-2.7617188-0.0076 0.00461-0.02361-0.00463-0.03125 0z" fill="url(#k)"/><path d="m13.34375 3.75c-0.965665 0.5849225-1.862933 1.2722918-2.6875 2.03125 2.656255 0.5079752 5.32084 2.8624365 6.78125 4.8125 1.272411 2.001434 1.963367 3.836737 2.861547 5.731248 0.608132-0.518349 1.226492-1.046358 1.896265-1.586717l-0.0039-8.2265622c-1.979009-1.2377932-5.249787-2.8669635-8.816412-2.7617188-0.0076 0.00461-0.02361-0.00463-0.03125 0z" fill="url(#l)"/></g><path d="m23.624045 9.9817797c1.861548 2.2579363 9.66462 11.4347183 8.973057 17.6398513-0.481905 0.610532-1.012264 1.181321-1.574221 1.720198 0.0819-4.749695-5.492392-9.832866-9.842649-13.669958z" fill="#00a54d" stroke-width="1.00417"/><g transform="matrix(-1.0075011 0 0 1.0008426 49.785753 .39043678) translate(8.216927,-1.072982)"><path d="m17.75 10.65625c-1.847688 2.256035-9.5926641 11.425091-8.90625 17.625 0.4783172 0.610018 1.0047273 1.180327 1.5625 1.71875-0.08129-4.745696 5.4515-9.824588 9.769368-13.658449z" fill="url(#gr0)"/><path d="m17.75 10.65625c-1.847688 2.256035-9.5926641 11.425091-8.90625 17.625 0.4783172 0.610018 1.0047273 1.180327 1.5625 1.71875-0.08129-4.745696 5.4515-9.824588 9.769368-13.658449z" fill="url(#gr1)"/><path d="m17.75 10.65625c-1.847688 2.256035-9.5926641 11.425091-8.90625 17.625 0.4783172 0.610018 1.0047273 1.180327 1.5625 1.71875-0.08129-4.745696 5.4515-9.824588 9.769368-13.658449z" fill="url(#gr2)"/></g><g stroke-width="1.00293"><path d="m28.208016 3.1011022c0.96969 0.5859083 1.870697 1.274436 2.6987 2.0346733-2.667324 0.5088313-5.343014 2.8672605-6.80951 4.8206105-1.277713 2.004807-1.971548 3.843203-2.873471 5.740907-0.610667-0.519222-1.231604-1.048121-1.904168-1.589391l0.0039-8.2404267c1.987256-1.2398792 5.271664-2.8717952 8.853152-2.7663731 0.0076 0.00462 0.02371-0.00464 0.03138 0z" fill="#02a74d"/><path d="m28.208016 3.1011022c0.96969 0.5859083 1.870697 1.274436 2.6987 2.0346733-2.667324 0.5088313-5.343014 2.8672605-6.80951 4.8206105-1.277713 2.004807-1.971548 3.843203-2.873471 5.740907-0.610667-0.519222-1.231604-1.048121-1.904168-1.589391l0.0039-8.2404267c1.987256-1.2398792 5.271664-2.8717952 8.853152-2.7663731 0.0076 0.00462 0.02371-0.00464 0.03138 0z" fill="url(#m)"/><path d="m28.208016 3.1011022c0.96969 0.5859083 1.870697 1.274436 2.6987 2.0346733-2.667324 0.5088313-5.343014 2.8672605-6.80951 4.8206105-1.277713 2.004807-1.971548 3.843203-2.873471 5.740907-0.610667-0.519222-1.231604-1.048121-1.904168-1.589391l0.0039-8.2404267c1.987256-1.2398792 5.271664-2.8717952 8.853152-2.7663731 0.0076 0.00462 0.02371-0.00464 0.03138 0z" fill="url(#n)"/><path d="m28.208016 3.1011022c0.96969 0.5859083 1.870697 1.274436 2.6987 2.0346733-2.667324 0.5088313-5.343014 2.8672605-6.80951 4.8206105-1.277713 2.004807-1.971548 3.843203-2.873471 5.740907-0.610667-0.519222-1.231604-1.048121-1.904168-1.589391l0.0039-8.2404267c1.987256-1.2398792 5.271664-2.8717952 8.853152-2.7663731 0.0076 0.00462 0.02371-0.00464 0.03138 0z" fill="url(#o)"/></g></svg>
